<?xml version="1.0" encoding="UTF-8"?>
<!DOCTYPE svg PUBLIC "-//W3C//DTD SVG 1.1//EN" "http://www.w3.org/Graphics/SVG/1.1/DTD/svg11.dtd">
<!-- Creator: CorelDRAW X7 -->
<svg xmlns="http://www.w3.org/2000/svg" xml:space="preserve" width="210mm" height="297mm" version="1.1" style="shape-rendering:geometricPrecision; text-rendering:geometricPrecision; image-rendering:optimizeQuality; fill-rule:evenodd; clip-rule:evenodd"
viewBox="0 0 21000 29700"
 xmlns:xlink="http://www.w3.org/1999/xlink">
 <defs>
  <style type="text/css">
   <![CDATA[
    .fil0 {fill:#4B4B4D}
    .fil1 {fill:#4B4B4D;fill-rule:nonzero}
   ]]>
  </style>
 </defs>
 <g id="Layer_x0020_1">
  <metadata id="CorelCorpID_0Corel-Layer"/>
  <path class="fil0" d="M2878 11211c0,0 -493,-493 10,-731 854,-98 966,-629 1749,-615 783,14 1151,38 1276,-32 126,-70 294,-168 403,-332 0,0 0,518 -294,559 -294,42 0,280 0,280 0,0 461,280 545,392 -83,-22 -125,-24 -202,5 211,322 329,481 594,761 -59,2 -119,5 -178,7 68,98 135,196 203,294 -70,-3 -140,-5 -210,-7 0,0 53,207 130,376l0 0c142,387 404,655 662,927 -33,-186 -229,-465 -401,-669 172,45 415,0 560,-236 203,-328 357,-2742 -146,-3721 -153,-364 182,-728 182,-728 0,0 1849,-2511 2100,-4848 513,888 147,1830 -99,2519 0,0 825,-1147 937,-2154 294,629 168,1846 -546,2770 633,-334 1303,-1602 1303,-1602 -45,1512 -574,1916 -989,2389 415,46 832,-351 1304,-1220 -23,1362 -564,1677 -1112,2039 662,-39 698,-152 1487,-932 -152,1119 -983,1608 -988,1678 493,43 710,-220 1073,-631 -85,753 -604,1032 -1156,1352 646,268 1064,-146 1193,-331 -88,430 -648,859 -1183,1137 502,-24 679,14 1259,-274 -350,750 -1742,933 -1630,1046 0,0 749,101 1196,-94 -136,244 -566,542 -1322,556 291,318 1147,182 1147,182 -329,353 -764,430 -1374,405 101,144 378,271 574,236 -189,86 -424,133 -602,205 -409,133 -490,393 -581,667 131,-166 440,-380 602,-469 146,29 349,48 570,5 434,-84 1147,-196 1777,42 629,238 1441,671 2070,1343 630,671 1343,1525 1749,1748 405,224 569,270 902,-56 294,-287 210,-849 210,-849 0,0 140,-549 706,-591 -154,265 -289,831 -289,831 -523,327 -443,987 -1096,994 -991,-41 -2735,-2865 -4050,-2979 -643,-56 -216,419 -216,419 0,0 895,812 1315,1455 419,644 1790,1287 1790,1287 0,0 252,28 350,490 98,461 588,1140 588,1140 -84,-53 -113,-68 -238,-98 63,95 172,337 235,433 0,0 31,28 -123,147 -154,119 -210,385 -210,385 -362,-2 -723,-5 -1084,-7 0,0 -210,-266 -396,-175 56,-178 284,-363 689,-238 344,138 425,-470 161,-776 -349,-406 -70,-392 -951,-874 -301,-345 -168,-378 -658,-623 -1224,-433 -937,-1853 -1273,-1958 -90,738 153,1697 1063,2133 0,0 448,168 420,448 -28,279 70,825 426,1084 -148,-31 -208,-53 -274,-112 40,79 121,264 161,343 24,84 -17,135 -164,233 -147,98 -394,522 -394,522 -359,-5 -718,-9 -1077,-14 0,0 -221,-236 -350,-168 49,-171 336,-378 616,-224 433,239 638,-908 321,-1245 -725,-1211 -2038,-777 -2546,-1986 0,0 -140,-266 -559,-406 16,242 167,420 300,490 -433,-85 -594,-14 -1070,321 -475,336 -1511,490 -1511,490 0,0 -42,728 182,1084 -387,-275 -282,497 -210,658 -104,-9 -146,-98 -146,-98 0,0 -119,266 48,434 -185,-9 -244,-133 -244,-133 0,0 -293,573 468,573 -186,207 -629,105 -629,105 0,0 -164,-154 -409,-70 -182,105 -336,161 -497,133 -112,-54 -180,88 -180,88 -53,-37 -48,-119 -2,-179 0,0 -220,-78 -364,137 -40,-123 49,-228 49,-228 -54,-7 -128,-5 -230,158 -16,-166 -35,-493 444,-256 1555,218 717,-1469 178,-2357 -64,-146 -28,-205 -139,-333 -45,-52 -336,-315 -430,-392 -75,182 140,276 291,472 110,144 165,421 156,435 -310,517 -130,726 -115,734 -353,-201 -491,273 -364,548 -93,-23 -99,-50 -148,-103 -54,-60 -279,183 -124,373 -129,-38 -161,-38 -210,-97 -44,9 -1056,843 -46,756 -188,182 -539,232 -704,172 -17,-1 -343,-118 -478,-51 -197,99 -339,-8 -343,-7 -82,19 -144,78 -160,144 -59,-74 6,-173 6,-173 0,0 -237,-140 -303,122 -51,-111 -88,-231 14,-262 -102,14 -165,-35 -287,140 -31,-119 74,-529 633,-189 1134,254 1417,-2238 1446,-2744 -707,-429 -885,-867 -909,-1491 -29,21 -86,152 -71,236 -77,-106 -16,-597 -13,-882 -50,24 -89,81 -93,211 -78,-145 38,-495 114,-655 427,-916 7,-1413 7,-1413 -285,-467 -1605,-699 -1554,-160zm1685 -1098c-173,39 -245,46 -399,113 381,310 846,-224 399,-113z"/>
  <path class="fil1" d="M3611 22314l0 -410 0 -193 3 -1048c0,-120 20,-217 59,-289 39,-73 94,-109 167,-109l416 0c116,0 191,34 223,103 32,68 48,169 48,301l0 850 211 0 0 -1012c4,-113 -21,-215 -72,-308 -52,-92 -135,-143 -248,-151l-638 0c-142,8 -245,61 -306,157 -62,96 -92,209 -92,338l0 192 0 3266 0 193c0,121 28,231 86,332 58,99 157,154 299,162l640 0c88,-8 164,-58 228,-150 65,-93 95,-195 91,-308l0 -1012 -7 -867 -204 0 -386 0 0 228 386 0 0 1488c0,133 -17,233 -48,301 -32,69 -106,103 -224,103l-295 0c-144,0 -236,-36 -276,-108 -41,-73 -61,-173 -61,-301l0 -1350 0 -398zm2576 2374l0 -4637 743 0c152,0 266,42 343,126 77,83 140,230 186,441 47,211 71,444 71,699 0,329 -38,606 -115,831 -78,225 -197,368 -358,428 59,78 103,156 133,232 64,165 125,369 184,615l295 1265 -280 0 -223 -967c-67,-279 -120,-492 -163,-640 -42,-148 -80,-251 -113,-309 -33,-58 -66,-99 -100,-123 -25,-15 -66,-22 -124,-22l-259 0 0 2061 -220 0zm223 -2242l413 0c136,-23 230,-82 282,-175 53,-91 97,-219 133,-379 36,-160 61,-358 73,-593 0,-323 -30,-582 -87,-778 -59,-194 -201,-304 -426,-328l-388 0 0 2253zm2597 2242l-6 -4640 240 0 0 4640 -234 0zm1705 0l0 -4621 1322 0 -3 210 -1085 0 0 1913 1001 0 0 239 -1001 0 0 2006 0 253 -234 0zm2715 0l0 -4621 1322 0 -3 210 -1085 0 0 1913 1001 0 0 239 -1001 0 0 2006 0 253 -234 0zm3060 -2374l0 -410 0 -193 3 -1048c0,-120 20,-217 59,-289 39,-73 94,-109 167,-109l416 0c116,0 191,34 223,103 32,68 48,169 48,301l0 850 0 771 0 928 0 855c-8,129 -28,227 -60,295 -32,69 -106,103 -223,103l-296 0c-144,0 -236,-36 -276,-108 -40,-73 -61,-173 -61,-301l0 -1350 0 -398zm1127 -795l0 -1012c4,-113 -20,-215 -72,-308 -52,-92 -151,-143 -296,-151l-590 0c-142,8 -245,61 -306,157 -61,96 -92,209 -92,338l0 192 0 3266 0 193c0,121 29,231 86,332 58,99 157,154 299,162l519 0c128,-8 235,-58 320,-150 84,-93 126,-208 126,-344l6 -2675z"/>
  <path class="fil1" d="M3499 26807l0 -1538 696 0 -1 70 -571 0 0 637 526 0 0 79 -526 0 0 667 0 85 -124 0zm1486 0l0 -1543 391 0c80,0 140,14 181,42 40,28 73,77 98,147 25,70 37,147 37,232 0,110 -20,202 -61,277 -41,75 -103,122 -188,142 31,26 54,52 70,77 34,55 66,123 97,205l155 421 -147 0 -117 -322c-36,-93 -64,-164 -86,-213 -22,-49 -42,-84 -60,-103 -17,-19 -35,-33 -53,-41 -13,-5 -34,-7 -65,-7l-136 0 0 686 -116 0zm117 -746l218 0c72,-8 121,-28 148,-58 28,-31 51,-73 70,-127 19,-53 32,-119 39,-197 0,-107 -16,-194 -46,-259 -31,-64 -106,-101 -224,-109l-205 0 0 750zm1757 -485l-263 1231 -135 0 370 -1542 137 0 399 1542 -148 0 -326 -1389 -34 158zm1836 1226l-58 0 -73 3 -628 -1398 0 1395 -114 3 4 -1542 191 0 615 1383 585 -1383 227 0 0 1544 -129 0 0 -1395 -620 1390zm1536 5l0 -1538 696 0 -2 70 -571 0 0 637 527 0 0 79 -527 0 0 675 590 0 5 77 -718 0zm2200 -1077l-93 -467 -145 2 -109 467 -198 921 -200 -919 -105 -469 -131 0 363 1542 135 0 315 -1384 290 1384 140 0 384 -1544 -140 0 -108 465 -198 921 -200 -919zm1564 287l0 -136 0 -65 1 -348c0,-40 10,-73 31,-96 21,-25 50,-37 88,-37l219 0c61,0 101,12 117,34 17,23 26,57 26,101l0 282 0 257 0 308 0 285c-5,43 -15,76 -32,98 -17,23 -56,34 -118,34l-155 0c-76,0 -124,-12 -146,-36 -21,-24 -31,-57 -31,-100l0 -449 0 -132zm593 -265l0 -336c2,-38 -11,-72 -38,-103 -28,-30 -80,-47 -156,-50l-311 0c-74,3 -128,20 -161,52 -32,32 -48,70 -48,113l0 64 0 1086 0 64c0,40 15,77 45,110 31,34 83,52 158,55l273 0c67,-3 124,-20 168,-50 44,-31 67,-70 67,-115l3 -890zm762 1055l0 -1543 392 0c79,0 140,14 180,42 41,28 74,77 98,147 25,70 37,147 37,232 0,110 -20,202 -60,277 -41,75 -104,122 -189,142 31,26 54,52 70,77 34,55 66,123 97,205l155 421 -147 0 -117 -322c-35,-93 -64,-164 -86,-213 -22,-49 -42,-84 -59,-103 -18,-19 -36,-33 -53,-41 -13,-5 -35,-7 -65,-7l-137 0 0 686 -116 0zm118 -746l217 0c72,-8 121,-28 149,-58 27,-31 51,-73 70,-127 19,-53 32,-119 38,-197 0,-107 -16,-194 -46,-259 -31,-64 -105,-101 -224,-109l-204 0 0 750zm1348 746l0 -1540 115 0 -4 794 463 -794 142 0 -373 621 391 919 -142 0 -329 -794 -152 236 4 558 -115 0z"/>
 </g>
</svg>
