<?xml version="1.0" encoding="UTF-8" standalone="no"?>
<!-- Created with Inkscape (http://www.inkscape.org/) -->

<svg
   xmlns:dc="http://purl.org/dc/elements/1.1/"
   xmlns:cc="http://creativecommons.org/ns#"
   xmlns:rdf="http://www.w3.org/1999/02/22-rdf-syntax-ns#"
   xmlns:svg="http://www.w3.org/2000/svg"
   xmlns="http://www.w3.org/2000/svg"
   xmlns:sodipodi="http://sodipodi.sourceforge.net/DTD/sodipodi-0.dtd"
   xmlns:inkscape="http://www.inkscape.org/namespaces/inkscape"
   id="svg2"
   version="1.1"
   inkscape:version="0.91 r13725"
   xml:space="preserve"
   width="152.6375"
   height="146.53751"
   viewBox="0 0 152.6375 146.53751"
   sodipodi:docname="logo.svg"
   inkscape:export-filename="/media/dados/Htdocs/web/nillsushi/website/client/layers/website/templates/crab/favicon.png"
   inkscape:export-xdpi="90.060196"
   inkscape:export-ydpi="90.060196"><metadata
     id="metadata8"><rdf:RDF><cc:Work
         rdf:about=""><dc:format>image/svg+xml</dc:format><dc:type
           rdf:resource="http://purl.org/dc/dcmitype/StillImage" /><dc:title></dc:title></cc:Work></rdf:RDF></metadata><defs
     id="defs6"><clipPath
       clipPathUnits="userSpaceOnUse"
       id="clipPath18"><path
         d="m 0,290 0,882 1221,0 0,-882 -1221,0 z"
         id="path20"
         inkscape:connector-curvature="0" /></clipPath><clipPath
       clipPathUnits="userSpaceOnUse"
       id="clipPath30"><path
         d="M 0,0 0,294 1221,294 1221,0 0,0 Z"
         id="path32"
         inkscape:connector-curvature="0" /></clipPath><clipPath
       clipPathUnits="userSpaceOnUse"
       id="clipPath44"><path
         d="m 299.637,397.91 0,0.008 0,-0.008 m -6.774,-12.172 c -2.148,-1.648 -3.832,-3.75 -5.043,-6.304 -1.191,-2.567 -1.797,-5.551 -1.797,-8.946 0,-4.16 1.832,-7.625 5.493,-10.422 3.66,-2.777 8.281,-4.953 13.871,-6.5 5.597,-1.558 11.168,-2.628 16.691,-3.222 5.527,-0.61 11.145,-0.977 16.832,-1.129 4.711,-3.434 7.067,-7.598 7.067,-12.488 0,-1.934 -0.399,-3.793 -1.215,-5.543 -3.637,-2.457 -6.899,-4.368 -9.828,-5.711 -4.707,-2.172 -10.356,-3.672 -16.942,-4.504 -6.59,-0.848 -13.332,-1.266 -20.222,-1.266 -1.489,0 -3.536,0.051 -6.168,0.149 -2.625,0.086 -4.329,0.168 -5.11,0.246 3.457,-2.364 9.531,-5.348 18.203,-8.93 8.668,-3.586 18.754,-5.379 30.239,-5.379 2.031,0 3.546,0.035 4.558,0.109 5.106,0.266 10.348,1.938 15.731,5.012 5.367,3.067 9.789,6.106 13.257,9.102 3.477,2.996 5.907,5.23 7.313,6.691 l -5.496,4.594 c 0.617,1.496 0.933,3.062 0.933,4.707 0,4.48 -1.05,8.25 -3.128,11.293 -2.082,3.047 -4.832,5.398 -8.266,7.058 -3.43,1.665 -7.188,2.833 -11.254,3.508 -4.062,0.668 -8.437,1 -13.117,1 -5.652,0 -11.156,-0.429 -16.547,-1.289 -3.934,2.785 -6.359,6.035 -7.297,9.711 4.508,-0.676 8.317,-1.047 11.391,-1.129 9.121,0 17.304,1.535 24.554,4.59 7.25,3.059 12.75,6.094 16.512,9.117 3.75,3.012 6.289,5.278 7.617,6.778 -2.504,-0.782 -6.574,-1.77 -12.246,-2.946 -5.656,-1.179 -11.676,-1.769 -18.031,-1.769 -6.961,0 -12.82,1.015 -17.59,3.031 l -0.668,0.336 -0.5,0.223 c 3.867,1.828 7.727,3.117 11.606,3.875 3.867,0.75 6.742,1.172 8.621,1.293 -1.762,0.371 -4.68,0.832 -8.766,1.375 -4.09,0.539 -8.598,0.808 -13.496,0.808 -3.949,0 -7.66,-0.258 -11.176,-0.785 -6.465,3.758 -9.742,5.703 -9.812,5.828 l -6.774,-12.172 m 29.039,-29.961 c 6.043,-1.347 10.871,-3 14.493,-4.988 -5.571,1.156 -10.399,2.824 -14.493,4.988"
         id="path46"
         inkscape:connector-curvature="0" /></clipPath><clipPath
       clipPathUnits="userSpaceOnUse"
       id="clipPath56"><path
         d="m 392.949,369.105 c -2.754,-2.667 -5.703,-6.644 -8.859,-11.894 -3.156,-5.254 -5.356,-11.375 -6.606,-18.371 -0.589,-2.914 -0.879,-6.281 -0.879,-10.098 0,-4.715 0.301,-9.183 0.903,-13.387 0.609,-4.203 1.105,-7.25 1.496,-9.113 l 16.406,5.836 c -1.457,-1.609 -2.742,-2.961 -3.847,-4.043 -1.083,-1.09 -1.844,-1.832 -2.278,-2.246 0.977,0.27 2.621,0.824 4.945,1.684 2.325,0.859 5.473,2.281 9.497,4.261 4.011,1.989 8.226,4.594 12.652,7.825 4.426,3.238 8.406,6.914 11.945,11.027 2.731,3.144 5.168,7.394 7.301,12.769 2.148,5.368 3.793,10.137 4.918,14.301 1.129,4.176 1.883,7.211 2.273,9.125 l -26.117,4.371 c 0,-4.261 -0.219,-10.117 -0.648,-17.562 -0.422,-7.434 -1.285,-12.848 -2.563,-16.211 -1.129,-2.805 -2.769,-5.813 -4.914,-9.031 -2.144,-3.219 -4.535,-6.383 -7.191,-9.485 -4.133,6.992 -6.555,12.621 -7.297,16.883 -0.305,1.828 -0.477,4.063 -0.477,6.684 0,6.023 0.68,12.117 2.024,18.32 1.34,6.184 2.465,10.758 3.363,13.711 -1.293,-0.891 -3.312,-2.68 -6.047,-5.356"
         id="path58"
         inkscape:connector-curvature="0" /></clipPath><clipPath
       clipPathUnits="userSpaceOnUse"
       id="clipPath68"><path
         d="m 452.859,375.047 0.02,0.039 -0.02,-0.039 m -5.125,-9.164 c -2.765,-2.285 -4.363,-5.168 -4.789,-8.645 -0.16,-1.191 -0.23,-2.113 -0.23,-2.75 0,-3.929 2.121,-7.039 6.367,-9.336 4.242,-2.308 9.301,-3.914 15.164,-4.828 5.867,-0.918 11.856,-1.484 17.973,-1.715 3.66,-2.324 5.488,-5.457 5.488,-9.425 0,-1.414 -0.312,-2.786 -0.93,-4.094 -2.453,-1.789 -4.89,-3.25 -7.312,-4.371 -3.469,-1.614 -7.684,-2.727 -12.649,-3.34 -4.972,-0.625 -10,-0.934 -15.105,-0.934 -2.145,0 -3.977,0.039 -5.492,0.09 -1.528,0.059 -2.574,0.106 -3.156,0.145 2.597,-1.793 7.156,-4.039 13.644,-6.739 6.484,-2.691 14.074,-4.043 22.758,-4.043 1.527,0 2.633,0.04 3.332,0.118 5.301,0.261 10.558,2.312 15.777,6.136 5.223,3.832 9.028,6.989 11.395,9.465 l -4.196,3.473 c 0.579,1.121 0.875,2.301 0.875,3.531 0,4.422 -1.32,7.918 -3.945,10.5 -2.637,2.578 -5.949,4.344 -9.961,5.305 -4.027,0.949 -8.32,1.418 -12.926,1.418 -3.191,0 -7.347,-0.297 -12.441,-0.891 -2.93,2.055 -4.719,4.473 -5.379,7.238 3.152,-0.484 5.977,-0.789 8.473,-0.906 5.344,0 10.258,0.742 14.75,2.195 4.504,1.454 8.293,3.141 11.34,5.032 3.066,1.875 5.433,3.554 7.113,5.004 1.668,1.464 2.777,2.507 3.316,3.152 -1.894,-0.598 -5.031,-1.336 -9.41,-2.223 -4.355,-0.879 -8.801,-1.312 -13.316,-1.312 -5.297,0 -9.699,0.765 -13.211,2.297 l -0.813,0.332 c 2.836,1.39 5.723,2.367 8.653,2.914 2.914,0.574 5.058,0.89 6.429,0.965 -1.289,0.257 -3.406,0.593 -6.351,1.011 -2.938,0.407 -6.418,0.61 -10.43,0.61 -3.269,0 -6.059,-0.184 -8.355,-0.551 -4.739,2.664 -7.176,4.113 -7.325,4.336 l -5.125,-9.164 m 21.911,-22.336 c 4.753,-1.117 8.414,-2.414 10.996,-3.871 -4.524,1.051 -8.176,2.336 -10.996,3.871"
         id="path70"
         inkscape:connector-curvature="0" /></clipPath><clipPath
       clipPathUnits="userSpaceOnUse"
       id="clipPath80"><path
         d="m 507.117,365.43 c 1.129,-2.051 2.649,-5.145 4.582,-9.258 1.922,-4.121 3.278,-7.934 4.055,-11.449 0.316,-1.453 0.617,-3.641 0.941,-6.563 l -9.578,-2.75 2.418,0 c 0.957,0 3.379,-0.035 7.27,-0.109 l 0,-1.735 c 0,-5.363 -0.399,-10.558 -1.196,-15.605 -0.793,-5.051 -1.461,-8.727 -2.015,-11.047 2.136,1.527 5.164,4.621 9.078,9.25 3.914,4.645 7.062,10.984 9.426,19.027 2.105,0 3.816,-0.011 5.14,-0.027 1.332,-0.019 2.774,-0.051 4.336,-0.086 -0.176,-1.238 -0.238,-3.031 -0.238,-5.379 0,-4.754 0.309,-9.344 0.891,-13.754 0.609,-4.41 1.105,-7.613 1.484,-9.593 l 26.461,9.871 c -0.582,0.754 -1.524,2.074 -2.832,3.961 -1.309,1.89 -2.719,4.195 -4.231,6.921 -1.519,2.739 -2.644,5.274 -3.386,7.633 4.91,-0.097 7.629,-0.199 8.187,-0.293 -0.222,0.153 -0.543,0.766 -0.918,1.836 -0.453,1.254 -0.668,2.5 -0.668,3.735 0,1.047 0.192,2.187 0.582,3.425 0,2.313 0.461,4.454 1.391,6.418 0.937,1.965 1.723,3.364 2.344,4.188 l -12.442,-3.703 c 0.086,4.863 0.449,9.535 1.125,14.047 0.653,4.507 1.192,7.75 1.617,9.746 -0.886,-0.649 -2.328,-1.965 -4.316,-3.965 -1.988,-2.004 -4.27,-5.09 -6.828,-9.254 -2.574,-4.172 -4.633,-9.105 -6.188,-14.793 l -9.808,-2.914 c 0.621,4.187 0.929,9.258 0.929,15.207 0,3.668 -0.089,6.98 -0.269,9.961 -0.164,2.973 -0.316,5.082 -0.43,6.312 l -26.914,-9.261 m 60.899,-31.024 -0.106,0.039 0.106,-0.039"
         id="path82"
         inkscape:connector-curvature="0" /></clipPath><clipPath
       clipPathUnits="userSpaceOnUse"
       id="clipPath92"><path
         d="m 570.004,365.035 c 0.504,-0.89 1.289,-2.433 2.351,-4.601 1.075,-2.164 2.215,-4.684 3.422,-7.567 1.211,-2.879 2.137,-5.715 2.801,-8.476 0.75,-2.84 1.121,-6.563 1.121,-11.168 0,-5.352 -0.406,-10.539 -1.203,-15.594 -0.793,-5.051 -1.457,-8.738 -2.016,-11.055 1.176,0.821 2.997,2.496 5.493,5.02 2.496,2.523 5.218,6.363 8.16,11.511 2.945,5.133 5.055,11.188 6.344,18.145 0.773,4.34 1.164,9.949 1.164,16.832 0,3.664 -0.09,6.984 -0.258,9.961 -0.184,2.973 -0.336,5.074 -0.438,6.309 l -26.941,-9.317"
         id="path94"
         inkscape:connector-curvature="0" /></clipPath><clipPath
       clipPathUnits="userSpaceOnUse"
       id="clipPath104"><path
         d="m 596.125,365.43 c 1.125,-2.051 2.645,-5.145 4.582,-9.258 1.926,-4.121 3.273,-7.934 4.063,-11.449 0.3,-1.453 0.625,-3.641 0.933,-6.563 l -9.578,-2.75 2.418,0 c 0.953,0 3.383,-0.035 7.266,-0.109 l 0,-1.735 c 0,-5.363 -0.391,-10.558 -1.196,-15.605 -0.789,-5.051 -1.457,-8.727 -2.008,-11.047 2.137,1.527 5.168,4.621 9.071,9.25 3.918,4.645 7.062,10.984 9.449,19.027 2.094,0 3.805,-0.011 5.125,-0.027 1.32,-0.019 2.766,-0.051 4.32,-0.086 -0.16,-1.238 -0.242,-3.031 -0.242,-5.379 0,-4.754 0.313,-9.344 0.918,-13.754 0.598,-4.41 1.094,-7.613 1.488,-9.593 l 26.446,9.871 c -0.582,0.754 -1.516,2.074 -2.832,3.961 -1.309,1.89 -2.711,4.195 -4.231,6.921 -1.523,2.739 -2.644,5.274 -3.387,7.633 4.907,-0.097 7.637,-0.199 8.192,-0.293 -0.238,0.153 -0.539,0.766 -0.918,1.836 -0.453,1.254 -0.668,2.5 -0.668,3.735 0,1.047 0.191,2.187 0.582,3.425 0,2.313 0.465,4.454 1.395,6.418 0.933,1.965 1.714,3.364 2.332,4.188 l -12.434,-3.703 c 0.074,4.863 0.449,9.535 1.129,14.047 0.652,4.507 1.187,7.75 1.617,9.746 -0.898,-0.649 -2.328,-1.965 -4.316,-3.965 -1.993,-2.004 -4.27,-5.09 -6.84,-9.254 -2.571,-4.172 -4.633,-9.105 -6.184,-14.793 l -9.808,-2.914 c 0.617,4.187 0.933,9.258 0.933,15.207 0,3.668 -0.086,6.98 -0.258,9.961 -0.179,2.973 -0.336,5.082 -0.437,6.312 l -26.922,-9.261 m 60.898,-31.024 -0.101,0.039 0.074,-0.039 0.027,0"
         id="path106"
         inkscape:connector-curvature="0" /></clipPath><clipPath
       clipPathUnits="userSpaceOnUse"
       id="clipPath116"><path
         d="m 687.469,362.289 1.051,-0.726 1.988,-1.43 c 0.863,-0.625 2.012,-1.473 3.445,-2.559 -8.301,-5.687 -13.992,-10.363 -17.133,-14.027 -1.277,-1.637 -2.3,-3.121 -3.09,-4.426 -1.871,0.445 -3.796,0.996 -5.773,1.649 -2,0.652 -3.344,1.14 -4.039,1.433 l -5.262,-16.777 c 0.66,-0.149 1.836,-0.379 3.532,-0.672 1.695,-0.301 3.64,-0.543 5.82,-0.727 -0.852,-3.394 -1.481,-6.25 -1.867,-8.539 -0.391,-2.273 -0.645,-3.941 -0.754,-4.976 l 21.73,-4.383 c -0.078,0.894 -0.176,2.406 -0.285,4.543 -0.129,2.137 -0.176,4.488 -0.176,7.066 0,3.289 0.032,5.746 0.11,7.352 8.269,2.805 16.097,6.973 23.496,12.512 1.441,-4.254 2.398,-8.786 2.855,-13.551 0.477,-4.774 0.707,-9.321 0.707,-13.66 l 0,-3.028 c 0.434,0.856 1.168,2.407 2.227,4.653 1.054,2.246 2.183,4.949 3.422,8.105 1.218,3.168 2.343,6.77 3.367,10.84 1.012,4.055 1.512,7.766 1.512,11.133 0,1.23 -0.043,2.148 -0.125,2.746 -0.465,4.156 -1.723,8.383 -3.762,12.683 -2.047,4.297 -3.977,7.825 -5.789,10.571 -1.809,2.754 -3.172,4.691 -4.063,5.808 l -23.144,-11.613 m 6.176,-17.668 c 1.023,1.824 2.777,4.82 5.222,8.969 3.574,-3.067 6.168,-5.832 7.778,-8.301 0.878,-1.426 1.566,-2.633 2.035,-3.641 -7.746,-2.253 -13.942,-3.636 -18.575,-4.164 1.313,2.926 2.5,5.297 3.54,7.137"
         id="path118"
         inkscape:connector-curvature="0" /></clipPath><clipPath
       clipPathUnits="userSpaceOnUse"
       id="clipPath128"><path
         d="m 741.148,369.105 c -2.746,-2.667 -5.703,-6.644 -8.859,-11.894 -3.152,-5.254 -5.355,-11.375 -6.598,-18.371 -0.582,-2.914 -0.878,-6.281 -0.878,-10.098 0,-4.715 0.308,-9.183 0.902,-13.387 0.613,-4.203 1.109,-7.25 1.492,-9.113 l 16.43,5.836 c -1.489,-1.609 -2.766,-2.961 -3.864,-4.043 -1.093,-1.09 -1.847,-1.832 -2.281,-2.246 0.981,0.27 2.633,0.824 4.946,1.684 2.312,0.859 5.488,2.281 9.496,4.261 4.011,1.989 8.23,4.594 12.652,7.825 4.426,3.238 8.406,6.914 11.945,11.027 2.739,3.144 5.168,7.394 7.321,12.769 2.136,5.368 3.769,10.137 4.898,14.301 1.137,4.176 1.895,7.211 2.285,9.125 l -26.133,4.371 c 0,-4.261 -0.203,-10.117 -0.64,-17.562 -0.426,-7.434 -1.278,-12.848 -2.563,-16.211 -1.136,-2.805 -2.769,-5.813 -4.906,-9.031 -2.145,-3.219 -4.551,-6.383 -7.191,-9.485 -4.133,6.992 -6.579,12.621 -7.309,16.883 -0.316,1.828 -0.473,4.063 -0.473,6.684 0,6.023 0.68,12.117 2.012,18.32 1.356,6.184 2.473,10.758 3.367,13.711 -1.293,-0.891 -3.304,-2.68 -6.051,-5.356"
         id="path130"
         inkscape:connector-curvature="0" /></clipPath><clipPath
       clipPathUnits="userSpaceOnUse"
       id="clipPath140"><path
         d="m 801.059,375.047 0.031,0.039 -0.031,-0.039 m -5.114,-9.164 c -2.777,-2.285 -4.367,-5.168 -4.804,-8.645 -0.149,-1.191 -0.235,-2.113 -0.235,-2.75 0,-3.929 2.129,-7.039 6.379,-9.336 4.235,-2.308 9.301,-3.914 15.16,-4.828 5.868,-0.918 11.856,-1.484 17.981,-1.715 3.648,-2.324 5.492,-5.457 5.492,-9.425 0,-1.414 -0.32,-2.786 -0.938,-4.094 -2.457,-1.789 -4.882,-3.25 -7.296,-4.371 -3.469,-1.614 -7.688,-2.727 -12.661,-3.34 -4.96,-0.625 -10.003,-0.934 -15.125,-0.934 -2.128,0 -3.953,0.039 -5.476,0.09 -1.52,0.059 -2.578,0.106 -3.156,0.145 2.605,-1.793 7.16,-4.039 13.636,-6.739 6.489,-2.691 14.078,-4.043 22.782,-4.043 1.511,0 2.625,0.04 3.324,0.118 5.293,0.261 10.555,2.312 15.781,6.136 5.215,3.832 9.012,6.989 11.399,9.465 l -4.208,3.473 c 0.567,1.121 0.872,2.301 0.872,3.531 0,4.422 -1.309,7.918 -3.95,10.5 -2.632,2.578 -5.953,4.344 -9.968,5.305 -4.004,0.949 -8.313,1.418 -12.903,1.418 -3.195,0 -7.359,-0.297 -12.449,-0.891 -2.937,2.055 -4.715,4.473 -5.383,7.238 3.153,-0.484 5.981,-0.789 8.477,-0.906 5.336,0 10.254,0.742 14.754,2.195 4.496,1.454 8.289,3.141 11.34,5.032 3.05,1.875 5.425,3.554 7.101,5.004 1.672,1.464 2.789,2.507 3.332,3.152 -1.914,-0.598 -5.043,-1.336 -9.406,-2.223 -4.367,-0.879 -8.813,-1.312 -13.324,-1.312 -5.301,0 -9.711,0.765 -13.207,2.297 l -0.821,0.332 c 2.848,1.39 5.723,2.367 8.641,2.914 2.922,0.574 5.066,0.89 6.437,0.965 -1.285,0.257 -3.406,0.593 -6.347,1.011 -2.934,0.407 -6.418,0.61 -10.422,0.61 -3.281,0 -6.07,-0.184 -8.371,-0.551 -4.731,2.656 -7.168,4.105 -7.324,4.336 l -5.114,-9.164 m 21.914,-22.336 c 4.758,-1.117 8.407,-2.414 10.989,-3.871 -4.524,1.051 -8.188,2.336 -10.989,3.871"
         id="path142"
         inkscape:connector-curvature="0" /></clipPath><clipPath
       clipPathUnits="userSpaceOnUse"
       id="clipPath152"><path
         d="m 873.988,369.105 c -2.746,-2.667 -5.687,-6.644 -8.851,-11.894 -3.157,-5.254 -5.36,-11.375 -6.602,-18.371 -0.594,-2.914 -0.879,-6.281 -0.879,-10.098 0,-4.715 0.301,-9.183 0.907,-13.387 0.605,-4.203 1.093,-7.25 1.492,-9.113 l 16.418,5.836 c -1.485,-1.609 -2.758,-2.961 -3.86,-4.043 -1.086,-1.09 -1.843,-1.832 -2.281,-2.246 0.988,0.27 2.633,0.824 4.949,1.684 2.305,0.859 5.477,2.281 9.485,4.261 4.023,1.989 8.226,4.594 12.664,7.825 4.429,3.238 8.406,6.914 11.945,11.027 2.73,3.144 5.164,7.394 7.309,12.769 2.136,5.368 3.773,10.137 4.902,14.301 1.129,4.176 1.891,7.211 2.281,9.125 l -26.117,4.371 c 0,-4.261 -0.211,-10.117 -0.648,-17.562 -0.422,-7.434 -1.282,-12.848 -2.567,-16.211 -1.137,-2.805 -2.773,-5.813 -4.91,-9.031 -2.148,-3.219 -4.535,-6.383 -7.199,-9.485 -4.125,6.992 -6.571,12.621 -7.301,16.883 -0.301,1.828 -0.453,4.063 -0.453,6.684 0,6.023 0.668,12.117 2.004,18.32 1.344,6.184 2.461,10.758 3.363,13.711 -1.289,-0.891 -3.293,-2.68 -6.051,-5.356"
         id="path154"
         inkscape:connector-curvature="0" /></clipPath></defs><sodipodi:namedview
     pagecolor="#ffffff"
     bordercolor="#666666"
     borderopacity="1"
     objecttolerance="10"
     gridtolerance="10"
     guidetolerance="10"
     inkscape:pageopacity="0"
     inkscape:pageshadow="2"
     inkscape:window-width="1366"
     inkscape:window-height="679"
     id="namedview4"
     showgrid="false"
     inkscape:zoom="1.6105092"
     inkscape:cx="-36.614722"
     inkscape:cy="90.694368"
     inkscape:window-x="0"
     inkscape:window-y="0"
     inkscape:window-maximized="1"
     inkscape:current-layer="g4445" /><g
     id="g10"
     inkscape:groupmode="layer"
     inkscape:label="ink_ext_XXXXXX"
     transform="matrix(1.25,0,0,-1.25,0,146.5375)"><g
       id="g12"
       transform="scale(0.1,0.1)"><g
         id="g4445"
         style="display:inline"><rect
           transform="scale(1,-1)"
           y="-1097.8077"
           x="98.892181"
           height="1023.3156"
           width="1023.3156"
           id="rect4394"
           style="opacity:0;fill:#da3b43;fill-opacity:1;stroke:none;stroke-width:0.68443143;stroke-miterlimit:4;stroke-dasharray:none" /><g
           transform="matrix(1.5362696,0,0,1.5362696,-265.28151,-405.8319)"
           id="g4396"><path
             inkscape:connector-curvature="0"
             id="path3515"
             d="m 473.28829,393.2062 c -6.75206,7.38586 -8.35142,11.34994 -6.7066,16.6226 1.88963,6.05747 1.07344,7.60129 -5.74873,10.87362 -7.98681,3.83095 -13.92736,4.32495 -24.42724,2.03131 -4.96409,-1.08438 -13.03043,-1.9716 -17.92521,-1.9716 -4.89477,0 -17.95753,-1.06129 -29.02837,-2.35843 -22.70029,-2.65973 -44.64984,-4.37382 -79.96114,-6.24433 -34.30938,-1.81743 -60.68434,-3.47051 -82.74689,-5.18623 -29.60238,-2.30206 -33.69486,-2.10626 -39.57543,1.89335 -10.95342,7.44987 -10.64887,6.1853 -3.1883,13.23851 l 6.6536,6.2903 7.40026,-0.80412 c 6.7091,-0.729 7.7586,-0.51451 11.23718,2.29668 4.41387,3.56705 6.49609,3.75628 13.93703,1.26657 3.82662,-1.28038 6.30452,-1.45943 8.5996,-0.62136 1.77323,0.64749 13.38938,1.44868 25.81367,1.7804 16.85686,0.45007 25.02168,1.21908 32.17305,3.03022 8.10891,2.05365 12.32015,2.33402 27.37012,1.82229 9.78269,-0.33265 18.93242,-0.72089 20.33275,-0.86275 5.60391,-0.56774 29.21888,1.81052 33.56184,3.38002 2.54597,0.92008 10.80356,2.02881 18.35022,2.46384 9.26989,0.53438 15.51983,1.5551 19.26553,3.14644 4.44895,1.8901 9.25437,2.44187 24.32302,2.79278 18.06414,0.42065 18.86722,0.54881 21.10528,3.36802 4.34894,5.47817 4.35002,9.35698 0.004,15.16888 -4.40388,5.88963 -4.84604,8.1423 -2.03754,10.3809 2.634,2.09952 2.39086,6.97386 -0.52547,10.53467 -2.023,2.47003 -2.22393,3.70736 -1.18753,7.31237 0.97659,3.39696 0.81425,4.97429 -0.74755,7.26359 -2.50288,3.6687 -2.52761,5.95443 -0.0855,7.90098 2.8671,2.28533 2.30322,6.32464 -1.27372,9.12396 -5.88389,4.60477 -7.95106,26.28948 -3.07381,32.24453 2.25741,2.75626 2.52541,4.23005 1.79301,9.86007 -1.15218,8.85681 -1.81096,10.21187 -4.62143,9.506 -3.65384,-0.91769 -3.85755,0.75092 -1.11685,9.14813 3.35403,10.27641 3.21459,13.55029 -0.77095,18.09939 -2.56691,2.92988 -3.57985,5.83817 -4.39753,12.626 -4.0341,33.48819 -4.16747,35.36709 -2.67373,37.66429 2.02553,3.11505 1.88645,7.15574 -0.27368,7.95187 -1.00567,0.37064 -1.49691,1.65073 -1.13855,2.96687 0.35151,1.29097 -0.55539,3.76268 -2.05023,5.58786 -2.05761,2.5129 -2.68005,4.99986 -2.68005,10.70998 0,4.0904 -1.11355,11.85645 -2.47456,17.25791 -1.36099,5.40145 -2.80831,11.82876 -3.21625,14.28291 -0.40795,2.45414 -1.54981,5.10621 -2.53749,5.89346 -1.31429,1.04761 -12.65429,1.31694 -42.29452,1.00452 -39.23072,-0.41351 -40.6582,-0.51306 -45.59088,-3.17967 -2.80066,-1.51404 -6.8107,-3.18513 -8.9112,-3.71353 -3.2854,-0.82646 -3.87543,-1.6084 -4.22231,-5.59545 l -0.4032,-4.63472 -6.81982,0.81836 c -6.56975,0.78835 -6.92706,0.67904 -9.74458,-2.98104 -4.13321,-5.36925 -9.01328,-4.79052 -10.13062,1.20139 -0.43887,2.35361 -1.20079,5.18647 -1.69314,6.29525 -1.12309,2.52923 0.95863,3.81794 7.53681,4.66575 3.92623,0.50604 5.45347,1.41136 6.74331,3.99734 1.91681,3.84303 10.64864,9.94397 16.04198,11.20853 2.02048,0.47374 6.60338,3.6605 10.18424,7.08169 3.58086,3.42117 7.94281,7.07899 9.69322,8.12847 6.75831,4.05201 32.13882,23.66443 52.12554,40.27924 12.30404,10.22826 27.12284,23.66571 40.66715,36.87634 49.98747,48.75594 80.08552,78.75826 98.79818,98.48398 7.00166,7.38071 20.53685,20.85469 30.07822,29.94218 18.18918,17.32398 24.78786,24.69547 28.47141,31.80588 3.93033,7.58681 8.87097,11.00386 15.91021,11.00386 3.93504,0 6.92556,-0.70103 8.19612,-1.92131 1.10026,-1.05671 2.02046,-2.01955 2.04489,-2.13964 1.9493,-9.58255 3.73061,-20.60485 3.74963,-23.20179 0.0137,-1.88156 2.03006,-6.43133 4.48064,-10.11061 2.45058,-3.67928 4.4556,-7.54037 4.4556,-8.58021 0,-2.95123 2.4243,-6.80346 7.6289,-12.1224 2.63201,-2.68984 5.1758,-6.48743 5.65286,-8.4391 0.47707,-1.95167 2.55317,-5.06094 4.61357,-6.90946 2.26226,-2.02966 3.74617,-4.60274 3.74617,-6.49584 0,-1.73975 1.69963,-4.99405 3.81909,-7.31245 2.10049,-2.29766 3.81908,-5.06272 3.81908,-6.14456 0,-1.08185 1.97987,-3.20999 4.39969,-4.72921 3.13836,-1.9703 5.6931,-5.40668 8.91121,-11.9864 2.48133,-5.0733 4.51151,-9.8411 4.51151,-10.59509 0,-0.75399 2.26734,-3.4344 5.03853,-5.95646 2.7712,-2.52207 5.92599,-6.71576 7.01065,-9.31933 1.22816,-2.94798 3.63827,-5.67792 6.38872,-7.23651 4.02766,-2.28231 6.98846,-7.68603 7.01556,-12.80391 0,-0.73636 1.1204,-2.30644 2.481,-3.48907 1.3607,-1.18265 2.8356,-3.73182 3.2777,-5.66482 0.5811,-2.54106 2.4523,-4.3993 6.7555,-6.70863 7.6884,-4.12603 15.1337,-12.72055 16.9192,-19.53085 1.1481,-4.37903 2.3869,-5.92694 6.6784,-8.34484 2.8978,-1.6327 9.2788,-6.9947 14.18,-11.91555 10.5538,-10.59628 19.56,-19.24189 27.7631,-26.65167 3.2847,-2.96699 5.9721,-5.802 5.9721,-6.30004 0,-1.36018 12.6499,-9.02976 18.459,-11.19162 2.8006,-1.04227 12.8257,-3.13335 22.278,-4.64685 21.7993,-3.4905 27.1826,-5.84842 22.278,-9.75785 -1.0503,-0.83713 -1.9096,-3.00012 -1.9096,-4.80663 0,-6.20933 -2.6976,-8.01114 -12.3094,-8.22179 -4.7825,-0.10478 -10.46,0.38456 -12.6165,1.08748 -3.5037,1.14199 -4.7097,0.7935 -11.3298,-3.2737 l -7.4087,-4.55174 -3.3101,2.48598 c -12.3994,9.31223 -12.4857,9.34364 -25.2193,9.18241 -14.141,-0.17904 -17.7498,-2.04103 -16.2411,-8.37971 2.9696,-12.47659 2.9535,-14.6328 -0.1953,-26.18911 -1.7217,-6.31905 -3.3641,-16.07687 -3.6497,-21.68404 -0.6078,-11.93233 -2.7961,-32.44132 -4.4835,-42.01987 -0.6515,-3.69852 -2.0797,-15.48154 -3.1738,-26.18449 -2.2622,-22.13147 -3.7792,-29.76312 -6.4874,-32.63727 -1.6775,-1.78029 -1.6467,-2.50209 0.2721,-6.36657 2.2921,-4.61644 2.3465,-3.15943 -1.9027,-50.9636 -0.5081,-5.7159 -0.6933,-11.06915 -0.4117,-11.89611 0.7344,-2.1562 7.8254,-5.99591 12.6788,-6.86545 2.2796,-0.40841 9.111,0.0893 15.1809,1.10584 6.0699,1.01661 13.9435,1.86359 17.4968,1.88218 22.5689,0.11798 28.3364,0.59725 33.1414,2.75378 4.6877,2.10394 5.7088,2.13817 14.6398,0.49078 7.903,-1.45777 15.8891,-1.58052 45.1652,-0.69421 19.6493,0.59487 36.2403,1.61532 37.0746,2.28031 0.8305,0.66198 9.746,1.30189 19.8122,1.42203 15.8507,0.18917 18.9842,-0.10087 23.3942,-2.16538 6.3468,-2.97113 6.8881,-5.76008 2.6698,-13.75507 -3.0852,-5.84735 -3.5599,-6.18345 -12.3573,-8.74986 -7.4555,-2.17492 -10.94,-2.5292 -18.8261,-1.91411 -27.7671,2.16575 -47.6097,1.91614 -91.1536,-1.14664 -24.5044,-1.72359 -54.5786,-3.43529 -66.8315,-3.80379 -12.2529,-0.36849 -23.6047,-0.92968 -25.2262,-1.24707 -5.1011,-0.99848 -6.5981,-6.98302 -6.612,-26.43213 -0.012,-15.95506 -0.2818,-18.01778 -3.1338,-23.9014 -3.5858,-7.39721 -4.6961,-8.05025 -11.41,-6.71053 -4.625,0.92291 -4.9971,1.34289 -6.6351,7.49038 -1.222,4.58596 -1.5754,11.72462 -1.1944,24.13047 0.4353,14.17546 0.1848,17.95995 -1.2821,19.36879 -2.4344,2.33809 -11.8553,3.59228 -20.00419,2.66313 -3.63693,-0.41469 -14.34625,-1.2871 -23.79849,-1.9387 -9.45224,-0.65159 -25.77883,-2.06253 -36.28132,-3.13539 -38.2123,-3.90356 -56.34348,-5.4493 -72.56266,-6.18623 -11.37203,-0.51669 -18.65517,-1.47913 -23.28053,-3.0764 -4.0388,-1.39472 -10.14911,-2.33425 -15.27635,-2.34891 -13.08511,-0.0374 -29.70184,-2.96181 -31.69347,-5.57775 -2.26079,-2.96947 -2.11738,-7.30875 0.47075,-14.24404 2.13752,-5.72782 2.12944,-5.8161 -0.80837,-8.81949 -1.63213,-1.66858 -4.15999,-2.91635 -5.61748,-2.77283 -1.9684,0.19381 -3.00333,-0.76133 -4.02379,-3.7136 -2.29652,-6.64399 -3.62623,-7.00566 -8.03322,-2.185 z m 41.20947,61.92192 c 6.70116,3.42435 13.74496,4.68456 19.37157,3.46578 3.18941,-0.69086 5.94236,-0.45789 8.97638,0.75964 5.29943,2.12662 10.20723,2.20381 21.54573,0.33887 8.08298,-1.32947 9.01074,-1.23699 14.98172,1.49356 5.86283,2.6811 8.07301,2.92605 28.00664,3.10394 19.11985,0.17065 22.60564,0.52445 29.91618,3.03642 6.82301,2.34447 10.95471,2.86024 23.55104,2.93992 8.40199,0.0532 15.97051,0.50999 16.81895,1.0152 0.84844,0.50523 7.66108,1.43488 15.13919,2.06589 9.27228,0.78241 14.30698,1.76474 15.83018,3.08867 3.9276,3.41384 5.0608,11.40081 4.199,29.59656 -0.5881,12.41662 -0.3704,18.20693 0.7982,21.22685 2.3167,5.9868 4.054,20.37506 4.4135,36.55299 0.2936,13.2056 3.003,35.26784 5.856,47.68343 0.6954,3.02606 1.5352,12.21573 1.8662,20.42148 0.7062,17.50312 2.3534,25.64202 5.9297,29.29811 2.3374,2.38966 2.4309,3.07248 0.957,6.98724 -1.2272,3.25954 -1.2815,5.03385 -0.2181,7.13323 0.7784,1.53696 1.7432,6.92092 2.1438,11.96436 0.4006,5.04344 1.0774,10.65007 1.5039,12.45918 0.5844,2.47889 0.024,4.01064 -2.273,6.21715 -2.8799,2.76589 -4.1724,2.97108 -23.3667,3.70934 -11.175,0.42982 -53.54421,1.37635 -94.15384,2.10338 -40.60963,0.72703 -87.94235,2.21005 -89.35335,2.75898 -5.2519,6.83016 -0.66498,15.16443 -3.33993,23.96328 4.38033,1.29139 13.81394,0.93714 20.6221,1.16418 10.11814,0.3374 12.68474,0.0583 14.0558,-1.52832 2.00034,-2.31488 6.28905,-2.56252 7.14889,-0.41278 0.44525,1.11317 5.06554,1.52832 17.00901,1.52832 13.78646,0 16.78759,-0.33842 18.84598,-2.12512 3.95953,-3.43691 10.38343,-4.15739 12.40101,-1.39088 1.52899,2.09654 3.72608,2.35141 22.7287,2.63664 11.56985,0.17367 26.38438,-0.30781 32.92118,-1.06997 6.5368,-0.76215 21.62376,-1.55949 33.52655,-1.77189 11.9029,-0.2124 26.329,-0.70753 32.058,-1.1003 5.7291,-0.39278 10.7091,-0.25958 11.0666,0.29599 1.1046,1.71659 -3.251,6.97357 -17.3762,20.97201 -12.3457,12.23482 -23.3899,24.86762 -31.2339,35.72631 -1.61667,2.23806 -9.75746,13.14739 -18.09063,24.24294 -34.93196,46.51171 -43.25786,58.87022 -43.25786,64.20956 0,2.73555 -1.25866,4.9429 -4.55753,7.99273 -6.69088,6.18577 -12.07867,13.70533 -19.66362,27.44386 -10.28712,18.63296 -11.46548,20.57027 -14.31576,23.53605 -3.52769,3.67063 -6.30201,3.46826 -8.83142,-0.64424 -3.53603,-5.74914 -7.01837,-8.18989 -9.20182,-6.44949 -2.69647,2.14931 -4.53525,0.52697 -4.53525,-4.00141 0,-3.37985 -2.09069,-5.9233 -15.15893,-18.4417 -11.41841,-10.93798 -15.70453,-14.32005 -17.37,-13.70625 -3.15651,1.16334 -6.93497,-2.5955 -6.93497,-6.89898 0,-4.40654 -10.45104,-15.80091 -47.64612,-51.94669 -19.47465,-18.92526 -26.02301,-24.58888 -27.80276,-24.04636 -3.49491,1.06534 -6.26834,-1.75809 -5.41073,-5.50827 0.60308,-2.63711 -0.31226,-4.1361 -5.35377,-8.76752 -8.21372,-7.54558 -15.73123,-12.94962 -18.7969,-13.51233 -1.39228,-0.25556 -2.70742,-1.34234 -2.92253,-2.41507 -0.21509,-1.07273 -3.27888,-4.82788 -6.8084,-8.34479 -5.24193,-5.2232 -6.97647,-6.2596 -9.47011,-5.65851 -3.79646,0.91514 -9.30173,-3.60722 -7.03797,-5.78141 2.29189,-2.20118 1.73019,-2.96016 -5.69292,-7.69236 -13.71246,-8.74163 -13.7763,-13.94858 -0.17103,-13.94858 5.34252,0 8.40492,0.61243 10.00147,2.0001 1.95897,1.70269 3.10969,1.79027 7.73842,0.589 2.99049,-0.77611 7.15584,-1.37692 9.25634,-1.33514 8.09854,0.16107 19.73596,-1.61937 21.13012,-3.23274 1.90037,-2.1992 4.26186,-2.14439 6.24001,0.14481 2.35521,2.72556 41.99829,2.63897 50.42927,-0.11016 5.4675,-1.78281 6.57532,-1.77893 13.35045,0.0468 5.96872,1.60848 8.52963,0.82328 10.55989,-0.39447 12.12023,-22.82467 4.09755,-11.82737 7.72328,-24.06175 -2.94938,-0.21408 -16.10408,-0.47803 -25.73136,-0.39684 -9.62728,0.0812 -18.07701,-0.0166 -18.77718,-0.21734 -0.70016,-0.20071 -6.76109,0.0663 -13.46872,0.59334 -8.21747,0.64569 -14.57483,0.48393 -19.48925,-0.49593 -10.42236,-2.07806 -11.12861,-4.11385 -6.47657,-18.66888 1.98892,-6.22279 4.026,-15.16552 4.52685,-19.87273 1.40246,-13.18071 3.32633,-23.41385 7.02372,-37.35945 2.6223,-9.89067 3.47006,-16.35242 3.76057,-28.66376 0.21406,-9.07204 1.25816,-19.47496 2.43247,-24.23606 1.28034,-5.19102 1.99509,-13.04146 1.89237,-20.78509 -0.11801,-8.89645 0.5695,-15.23164 2.41189,-22.2247 1.85927,-7.05714 2.73421,-15.22939 3.14163,-29.34365 0.42984,-14.89134 1.0562,-20.43827 2.62315,-23.23039 1.44553,-2.57573 2.07425,-6.94461 2.11144,-14.67182 0.0724,-15.04714 1.03489,-16.45145 13.53587,-19.74964 12.78328,-3.37268 14.14481,-3.39237 20.21122,-0.29233 z"
             style="fill:#333333"
             sodipodi:nodetypes="cssssssssscssscssssssssscssssssssssssssscssscsssscssssssssssssssssscsssssssssssssscccsssssssscsscscssscscsscscscsssscssssssssccscsssssssssssssccsssssssscssssccscscsscssccssssssssssssssssssssssssssssscssssssssssssccscssssssssssssss" /><path
             style="opacity:1;fill:#b3b3b3"
             d="m 663.73554,682.00854 66.15264,-14.73417 -39.5692,-166.46103 -66.15264,14.73418 z"
             id="rect3540"
             inkscape:connector-curvature="0"
             sodipodi:nodetypes="ccccc" /><circle
             transform="scale(1,-1)"
             r="103.61768"
             cy="-595.36255"
             cx="583.94696"
             id="circle4366"
             style="opacity:1;fill:#ffffff;stroke:#666666" /><path
             inkscape:connector-curvature="0"
             style="opacity:0.56999966;fill:#808080;stroke:#666666;stroke-width:0.125"
             d="M 82.580078,63.431641 78.162109,82.015625 80.625,82.564453 a 12.95221,12.95221 0 0 0 5.320312,-10.447265 12.95221,12.95221 0 0 0 -3.365234,-8.685547 z"
             id="path3536"
             transform="matrix(8,0,0,-8,0,1172.3)" /><ellipse
             transform="scale(1,-1)"
             cy="-595.36255"
             cx="583.94696"
             id="circle3545"
             style="opacity:1;fill:#ffffff;stroke:#666666"
             rx="77.376022"
             ry="75.196419" /><path
             d="m 299.637,397.91 0,0.008 0,-0.008 m -6.774,-12.172 c -2.148,-1.648 -3.832,-3.75 -5.043,-6.304 -1.191,-2.567 -1.797,-5.551 -1.797,-8.946 0,-4.16 1.832,-7.625 5.493,-10.422 3.66,-2.777 8.281,-4.953 13.871,-6.5 5.597,-1.558 11.168,-2.628 16.691,-3.222 5.527,-0.61 11.145,-0.977 16.832,-1.129 4.711,-3.434 7.067,-7.598 7.067,-12.488 0,-1.934 -0.399,-3.793 -1.215,-5.543 -3.637,-2.457 -6.899,-4.368 -9.828,-5.711 -4.707,-2.172 -10.356,-3.672 -16.942,-4.504 -6.59,-0.848 -13.332,-1.266 -20.222,-1.266 -1.489,0 -3.536,0.051 -6.168,0.149 -2.625,0.086 -4.329,0.168 -5.11,0.246 3.457,-2.364 9.531,-5.348 18.203,-8.93 8.668,-3.586 18.754,-5.379 30.239,-5.379 2.031,0 3.546,0.035 4.558,0.109 5.106,0.266 10.348,1.938 15.731,5.012 5.367,3.067 9.789,6.106 13.257,9.102 3.477,2.996 5.907,5.23 7.313,6.691 l -5.496,4.594 c 0.617,1.496 0.933,3.062 0.933,4.707 0,4.48 -1.05,8.25 -3.128,11.293 -2.082,3.047 -4.832,5.398 -8.266,7.058 -3.43,1.665 -7.188,2.833 -11.254,3.508 -4.062,0.668 -8.437,1 -13.117,1 -5.652,0 -11.156,-0.429 -16.547,-1.289 -3.934,2.785 -6.359,6.035 -7.297,9.711 4.508,-0.676 8.317,-1.047 11.391,-1.129 9.121,0 17.304,1.535 24.554,4.59 7.25,3.059 12.75,6.094 16.512,9.117 3.75,3.012 6.289,5.278 7.617,6.778 -2.504,-0.782 -6.574,-1.77 -12.246,-2.946 -5.656,-1.179 -11.676,-1.769 -18.031,-1.769 -6.961,0 -12.82,1.015 -17.59,3.031 l -0.668,0.336 -0.5,0.223 c 3.867,1.828 7.727,3.117 11.606,3.875 3.867,0.75 6.742,1.172 8.621,1.293 -1.762,0.371 -4.68,0.832 -8.766,1.375 -4.09,0.539 -8.598,0.808 -13.496,0.808 -3.949,0 -7.66,-0.258 -11.176,-0.785 -6.465,3.758 -9.742,5.703 -9.812,5.828 l -6.774,-12.172 z m 29.043,-29.961 c 6.039,-1.343 10.867,-3 14.489,-4.988 -5.571,1.156 -10.399,2.824 -14.489,4.988"
             style="fill:#ffcf26;fill-opacity:1;fill-rule:nonzero;stroke:none"
             id="path38"
             inkscape:connector-curvature="0" /><g
             id="g40"
             style="fill:#ffcf26;fill-opacity:1"><g
               id="g42"
               clip-path="url(#clipPath44)"
               style="fill:#ffcf26;fill-opacity:1"><path
                 d="m 286.023,305.789 89.7695,0 0,92.1289 -89.7695,0 0,-92.1289 z"
                 style="fill:#ffcf26;fill-opacity:1;fill-rule:nonzero;stroke:none"
                 id="path48"
                 inkscape:connector-curvature="0" /></g></g><path
             d="m 392.949,369.105 c -2.754,-2.667 -5.703,-6.644 -8.859,-11.894 -3.156,-5.254 -5.356,-11.375 -6.606,-18.371 -0.589,-2.914 -0.879,-6.281 -0.879,-10.098 0,-4.715 0.301,-9.183 0.903,-13.387 0.609,-4.203 1.105,-7.25 1.496,-9.113 l 16.406,5.836 c -1.457,-1.609 -2.742,-2.961 -3.847,-4.043 -1.083,-1.09 -1.844,-1.832 -2.278,-2.246 0.977,0.27 2.621,0.824 4.945,1.684 2.325,0.859 5.473,2.281 9.497,4.261 4.011,1.989 8.226,4.594 12.652,7.825 4.426,3.238 8.406,6.914 11.945,11.027 2.731,3.144 5.168,7.394 7.301,12.769 2.148,5.368 3.793,10.137 4.918,14.301 1.129,4.176 1.883,7.211 2.273,9.125 l -26.117,4.371 c 0,-4.261 -0.219,-10.117 -0.648,-17.562 -0.422,-7.434 -1.285,-12.848 -2.563,-16.211 -1.129,-2.805 -2.769,-5.813 -4.914,-9.031 -2.144,-3.219 -4.535,-6.383 -7.191,-9.485 -4.133,6.992 -6.555,12.621 -7.297,16.883 -0.305,1.828 -0.477,4.063 -0.477,6.688 0,6.019 0.68,12.113 2.024,18.316 1.34,6.184 2.465,10.758 3.363,13.711 -1.293,-0.895 -3.312,-2.68 -6.047,-5.356"
             style="fill:#ffcf26;fill-opacity:1;fill-rule:nonzero;stroke:none"
             id="path50"
             inkscape:connector-curvature="0" /><g
             id="g52"
             style="fill:#ffcf26;fill-opacity:1"><g
               id="g54"
               clip-path="url(#clipPath56)"
               style="fill:#ffcf26;fill-opacity:1"><path
                 d="m 376.605,305.789 66.2109,0 0,68.6719 -66.2109,0 0,-68.6719 z"
                 style="fill:#ffcf26;fill-opacity:1;fill-rule:nonzero;stroke:none"
                 id="path60"
                 inkscape:connector-curvature="0" /></g></g><path
             d="m 452.859,375.047 0.024,0.039 -0.024,-0.039 m -5.125,-9.164 c -2.765,-2.285 -4.363,-5.168 -4.789,-8.645 -0.16,-1.191 -0.23,-2.113 -0.23,-2.75 0,-3.929 2.121,-7.039 6.367,-9.336 4.242,-2.308 9.301,-3.914 15.164,-4.828 5.867,-0.918 11.856,-1.484 17.973,-1.715 3.66,-2.324 5.488,-5.457 5.488,-9.425 0,-1.414 -0.312,-2.786 -0.93,-4.094 -2.453,-1.789 -4.89,-3.25 -7.312,-4.371 -3.469,-1.614 -7.684,-2.727 -12.649,-3.34 -4.972,-0.625 -10,-0.934 -15.105,-0.934 -2.145,0 -3.977,0.039 -5.492,0.09 -1.528,0.059 -2.574,0.106 -3.156,0.145 2.597,-1.793 7.156,-4.039 13.644,-6.739 6.484,-2.691 14.074,-4.043 22.758,-4.043 1.527,0 2.633,0.04 3.332,0.114 5.301,0.265 10.558,2.316 15.777,6.14 5.223,3.832 9.028,6.989 11.395,9.465 l -4.196,3.473 c 0.579,1.121 0.875,2.301 0.875,3.531 0,4.422 -1.32,7.918 -3.945,10.5 -2.637,2.578 -5.949,4.344 -9.961,5.305 -4.027,0.949 -8.32,1.418 -12.926,1.418 -3.191,0 -7.347,-0.297 -12.441,-0.891 -2.93,2.055 -4.719,4.473 -5.379,7.238 3.152,-0.484 5.977,-0.789 8.473,-0.906 5.344,0 10.258,0.742 14.75,2.195 4.504,1.454 8.293,3.141 11.34,5.032 3.066,1.875 5.433,3.554 7.113,5.004 1.672,1.464 2.777,2.507 3.316,3.152 -1.894,-0.598 -5.031,-1.336 -9.41,-2.223 -4.355,-0.879 -8.801,-1.312 -13.316,-1.312 -5.297,0 -9.699,0.765 -13.211,2.297 l -0.813,0.332 c 2.836,1.39 5.723,2.367 8.653,2.914 2.914,0.574 5.058,0.89 6.429,0.965 -1.289,0.257 -3.406,0.593 -6.351,1.011 -2.938,0.407 -6.418,0.61 -10.43,0.61 -3.269,0 -6.059,-0.184 -8.355,-0.551 -4.739,2.664 -7.176,4.113 -7.325,4.336 l -5.125,-9.164 z m 21.911,-22.336 c 4.753,-1.113 8.414,-2.414 10.996,-3.871 -4.524,1.051 -8.176,2.336 -10.996,3.871"
             style="fill:#ffcf26;fill-opacity:1;fill-rule:nonzero;stroke:none"
             id="path62"
             inkscape:connector-curvature="0" /><g
             id="g64"
             style="fill:#ffcf26;fill-opacity:1"><g
               id="g66"
               clip-path="url(#clipPath68)"
               style="fill:#ffcf26;fill-opacity:1"><path
                 d="m 442.715,305.898 67.2539,0 0,69.1875 -67.2539,0 0,-69.1875 z"
                 style="fill:#ffcf26;fill-opacity:1;fill-rule:nonzero;stroke:none"
                 id="path72"
                 inkscape:connector-curvature="0" /></g></g><path
             d="m 507.117,365.43 c 1.129,-2.051 2.653,-5.145 4.582,-9.258 1.922,-4.121 3.278,-7.934 4.055,-11.449 0.316,-1.453 0.617,-3.641 0.941,-6.563 l -9.578,-2.75 2.418,0 c 0.957,0 3.379,-0.035 7.27,-0.109 l 0,-1.735 c 0,-5.363 -0.399,-10.558 -1.196,-15.605 -0.793,-5.051 -1.461,-8.727 -2.015,-11.047 2.136,1.527 5.164,4.621 9.078,9.25 3.914,4.645 7.066,10.984 9.426,19.027 2.105,0 3.816,-0.011 5.14,-0.027 1.332,-0.019 2.774,-0.051 4.336,-0.086 -0.176,-1.238 -0.238,-3.031 -0.238,-5.379 0,-4.754 0.305,-9.344 0.891,-13.754 0.609,-4.41 1.105,-7.613 1.484,-9.593 l 26.457,9.871 c -0.578,0.754 -1.52,2.07 -2.828,3.961 -1.309,1.89 -2.719,4.195 -4.231,6.921 -1.519,2.739 -2.644,5.274 -3.386,7.633 4.91,-0.097 7.629,-0.199 8.187,-0.293 -0.222,0.153 -0.543,0.766 -0.918,1.836 -0.453,1.254 -0.668,2.5 -0.668,3.735 0,1.047 0.192,2.187 0.582,3.425 0,2.313 0.461,4.454 1.391,6.418 0.937,1.965 1.723,3.364 2.344,4.188 l -12.442,-3.703 c 0.086,4.863 0.449,9.535 1.125,14.047 0.653,4.507 1.192,7.75 1.617,9.746 -0.886,-0.649 -2.328,-1.965 -4.312,-3.965 -1.992,-2.004 -4.274,-5.09 -6.832,-9.254 -2.574,-4.172 -4.633,-9.105 -6.188,-14.793 l -9.808,-2.914 c 0.621,4.187 0.933,9.258 0.933,15.207 0,3.668 -0.093,6.98 -0.273,9.961 -0.164,2.973 -0.316,5.082 -0.43,6.312 l -26.914,-9.261 z m 60.899,-31.024 -0.106,0.039 0.106,-0.039"
             style="fill:#ffcf26;fill-opacity:1;fill-rule:nonzero;stroke:none"
             id="path74"
             inkscape:connector-curvature="0" /><g
             id="g76"
             style="fill:#ffcf26;fill-opacity:1"><g
               id="g78"
               clip-path="url(#clipPath80)"
               style="fill:#ffcf26;fill-opacity:1"><path
                 d="m 507.117,306.352 63.5234,0 0,68.3398 -63.5234,0 0,-68.3398 z"
                 style="fill:#ffcf26;fill-opacity:1;fill-rule:nonzero;stroke:none"
                 id="path84"
                 inkscape:connector-curvature="0" /></g></g><path
             d="m 570.004,365.035 c 0.504,-0.89 1.289,-2.433 2.351,-4.601 1.075,-2.164 2.215,-4.684 3.422,-7.567 1.211,-2.879 2.137,-5.715 2.801,-8.476 0.75,-2.84 1.121,-6.563 1.121,-11.168 0,-5.352 -0.406,-10.539 -1.203,-15.594 -0.793,-5.051 -1.457,-8.738 -2.016,-11.055 1.176,0.821 2.997,2.496 5.493,5.02 2.496,2.523 5.222,6.363 8.16,11.511 2.945,5.133 5.055,11.188 6.344,18.145 0.773,4.34 1.164,9.949 1.164,16.832 0,3.664 -0.09,6.984 -0.258,9.961 -0.184,2.973 -0.336,5.074 -0.438,6.309 l -26.941,-9.317"
             style="fill:#ffcf26;fill-opacity:1;fill-rule:nonzero;stroke:none"
             id="path86"
             inkscape:connector-curvature="0" /><g
             id="g88"
             style="fill:#ffcf26;fill-opacity:1"><g
               id="g90"
               clip-path="url(#clipPath92)"
               style="fill:#ffcf26;fill-opacity:1"><path
                 d="m 570.004,306.574 27.6367,0 0,67.7773 -27.6367,0 0,-67.7773 z"
                 style="fill:#ffcf26;fill-opacity:1;fill-rule:nonzero;stroke:none"
                 id="path96"
                 inkscape:connector-curvature="0" /></g></g><path
             d="m 596.125,365.43 c 1.125,-2.051 2.645,-5.145 4.582,-9.258 1.926,-4.121 3.273,-7.934 4.063,-11.449 0.3,-1.453 0.625,-3.641 0.933,-6.563 l -9.578,-2.75 2.418,0 c 0.953,0 3.383,-0.035 7.266,-0.109 l 0,-1.735 c 0,-5.363 -0.391,-10.558 -1.196,-15.605 -0.789,-5.051 -1.457,-8.727 -2.008,-11.047 2.137,1.527 5.168,4.621 9.071,9.25 3.918,4.645 7.062,10.984 9.449,19.027 2.094,0 3.805,-0.011 5.125,-0.027 1.32,-0.019 2.766,-0.051 4.32,-0.086 -0.16,-1.238 -0.242,-3.031 -0.242,-5.379 0,-4.754 0.313,-9.344 0.918,-13.754 0.598,-4.41 1.094,-7.613 1.488,-9.593 l 26.446,9.871 c -0.582,0.754 -1.516,2.07 -2.828,3.961 -1.313,1.89 -2.715,4.195 -4.235,6.921 -1.523,2.739 -2.644,5.274 -3.387,7.633 4.907,-0.097 7.637,-0.199 8.192,-0.293 -0.238,0.153 -0.539,0.766 -0.918,1.836 -0.453,1.254 -0.668,2.5 -0.668,3.735 0,1.047 0.191,2.187 0.582,3.425 0,2.313 0.465,4.454 1.395,6.418 0.933,1.965 1.714,3.364 2.332,4.188 l -12.434,-3.703 c 0.074,4.863 0.449,9.535 1.129,14.047 0.652,4.507 1.187,7.75 1.617,9.746 -0.898,-0.649 -2.328,-1.965 -4.316,-3.965 -1.993,-2.004 -4.27,-5.09 -6.84,-9.254 -2.571,-4.172 -4.633,-9.105 -6.184,-14.793 l -9.808,-2.914 c 0.617,4.187 0.933,9.258 0.933,15.207 0,3.668 -0.086,6.98 -0.258,9.961 -0.179,2.973 -0.336,5.082 -0.437,6.312 l -26.922,-9.261 z m 60.898,-31.024 -0.101,0.039 0.074,-0.039"
             style="fill:#ffcf26;fill-opacity:1;fill-rule:nonzero;stroke:none"
             id="path98"
             inkscape:connector-curvature="0" /><g
             id="g100"
             style="fill:#ffcf26;fill-opacity:1"><g
               id="g102"
               clip-path="url(#clipPath104)"
               style="fill:#ffcf26;fill-opacity:1"><path
                 d="m 596.125,306.352 63.5195,0 0,68.3398 -63.5195,0 0,-68.3398 z"
                 style="fill:#ffcf26;fill-opacity:1;fill-rule:nonzero;stroke:none"
                 id="path108"
                 inkscape:connector-curvature="0" /></g></g><path
             d="m 687.469,362.289 1.051,-0.726 1.988,-1.43 c 0.863,-0.625 2.012,-1.473 3.445,-2.559 -8.301,-5.687 -13.992,-10.363 -17.133,-14.027 -1.277,-1.637 -2.3,-3.121 -3.09,-4.426 -1.871,0.445 -3.796,0.996 -5.773,1.649 -2,0.652 -3.344,1.14 -4.039,1.433 l -5.262,-16.777 c 0.66,-0.149 1.836,-0.379 3.532,-0.672 1.695,-0.301 3.64,-0.543 5.82,-0.727 -0.852,-3.394 -1.481,-6.25 -1.867,-8.539 -0.391,-2.273 -0.645,-3.941 -0.754,-4.976 l 21.73,-4.383 c -0.078,0.894 -0.176,2.406 -0.285,4.543 -0.129,2.137 -0.176,4.488 -0.176,7.066 0,3.289 0.032,5.746 0.11,7.352 8.269,2.805 16.097,6.973 23.496,12.512 1.441,-4.254 2.398,-8.786 2.855,-13.551 0.477,-4.774 0.707,-9.321 0.707,-13.66 l 0,-3.028 c 0.434,0.856 1.168,2.407 2.227,4.653 1.054,2.246 2.183,4.949 3.422,8.105 1.222,3.168 2.343,6.77 3.363,10.84 1.016,4.055 1.519,7.766 1.519,11.133 0,1.23 -0.046,2.148 -0.128,2.746 -0.465,4.156 -1.723,8.383 -3.762,12.683 -2.047,4.297 -3.977,7.825 -5.789,10.571 -1.809,2.754 -3.172,4.691 -4.063,5.804 l -23.144,-11.609 z m 6.172,-17.668 c 1.027,1.824 2.781,4.82 5.226,8.969 3.574,-3.067 6.168,-5.832 7.778,-8.301 0.878,-1.426 1.566,-2.633 2.035,-3.641 -7.746,-2.253 -13.942,-3.636 -18.575,-4.164 1.313,2.926 2.5,5.297 3.536,7.137"
             style="fill:#ffcf26;fill-opacity:1;fill-rule:nonzero;stroke:none"
             id="path110"
             inkscape:connector-curvature="0" /><g
             id="g112"
             style="fill:#ffcf26;fill-opacity:1"><g
               id="g114"
               clip-path="url(#clipPath116)"
               style="fill:#ffcf26;fill-opacity:1"><path
                 d="m 658.656,306.129 65.6992,0 0,67.7695 -65.6992,0 0,-67.7695 z"
                 style="fill:#ffcf26;fill-opacity:1;fill-rule:nonzero;stroke:none"
                 id="path120"
                 inkscape:connector-curvature="0" /></g></g><path
             d="m 741.148,369.105 c -2.746,-2.667 -5.703,-6.644 -8.859,-11.894 -3.152,-5.254 -5.355,-11.375 -6.598,-18.371 -0.582,-2.914 -0.878,-6.281 -0.878,-10.098 0,-4.715 0.308,-9.183 0.902,-13.387 0.613,-4.203 1.109,-7.25 1.492,-9.113 l 16.43,5.836 c -1.489,-1.609 -2.766,-2.961 -3.864,-4.043 -1.093,-1.09 -1.847,-1.832 -2.281,-2.246 0.981,0.27 2.637,0.824 4.946,1.684 2.312,0.859 5.488,2.281 9.496,4.261 4.011,1.989 8.23,4.594 12.652,7.825 4.426,3.238 8.406,6.914 11.945,11.027 2.739,3.144 5.168,7.394 7.321,12.769 2.136,5.368 3.769,10.137 4.898,14.301 1.137,4.176 1.895,7.211 2.285,9.125 l -26.133,4.371 c 0,-4.261 -0.203,-10.117 -0.64,-17.562 -0.426,-7.434 -1.278,-12.848 -2.563,-16.211 -1.136,-2.805 -2.769,-5.813 -4.906,-9.031 -2.145,-3.219 -4.551,-6.383 -7.191,-9.485 -4.133,6.992 -6.579,12.621 -7.309,16.883 -0.316,1.828 -0.473,4.063 -0.473,6.688 0,6.019 0.68,12.113 2.012,18.316 1.356,6.184 2.473,10.758 3.367,13.711 -1.293,-0.895 -3.304,-2.68 -6.051,-5.356"
             style="fill:#ffcf26;fill-opacity:1;fill-rule:nonzero;stroke:none"
             id="path122"
             inkscape:connector-curvature="0" /><g
             id="g124"
             style="fill:#ffcf26;fill-opacity:1"><g
               id="g126"
               clip-path="url(#clipPath128)"
               style="fill:#ffcf26;fill-opacity:1"><path
                 d="m 724.813,305.789 66.2227,0 0,68.6719 -66.2227,0 0,-68.6719 z"
                 style="fill:#ffcf26;fill-opacity:1;fill-rule:nonzero;stroke:none"
                 id="path132"
                 inkscape:connector-curvature="0" /></g></g><path
             d="m 801.059,375.047 0.031,0.039 -0.031,-0.039 m -5.114,-9.164 c -2.773,-2.285 -4.367,-5.168 -4.804,-8.645 -0.149,-1.191 -0.235,-2.113 -0.235,-2.75 0,-3.929 2.129,-7.039 6.379,-9.336 4.235,-2.308 9.301,-3.914 15.16,-4.828 5.868,-0.918 11.856,-1.484 17.985,-1.715 3.644,-2.324 5.488,-5.457 5.488,-9.425 0,-1.414 -0.32,-2.786 -0.938,-4.094 -2.457,-1.789 -4.882,-3.25 -7.296,-4.371 -3.469,-1.614 -7.688,-2.727 -12.661,-3.34 -4.96,-0.625 -10.003,-0.934 -15.121,-0.934 -2.132,0 -3.957,0.039 -5.48,0.09 -1.516,0.059 -2.578,0.106 -3.152,0.145 2.601,-1.793 7.156,-4.039 13.632,-6.739 6.489,-2.691 14.078,-4.043 22.782,-4.043 1.511,0 2.625,0.04 3.324,0.114 5.293,0.265 10.555,2.316 15.781,6.14 5.215,3.832 9.012,6.989 11.399,9.465 l -4.208,3.473 c 0.567,1.121 0.872,2.301 0.872,3.531 0,4.422 -1.309,7.918 -3.95,10.5 -2.632,2.578 -5.953,4.344 -9.968,5.305 -4.004,0.949 -8.313,1.418 -12.903,1.418 -3.195,0 -7.359,-0.297 -12.449,-0.891 -2.937,2.055 -4.715,4.473 -5.383,7.238 3.153,-0.484 5.981,-0.789 8.477,-0.906 5.336,0 10.254,0.742 14.754,2.195 4.496,1.454 8.289,3.141 11.34,5.032 3.05,1.875 5.425,3.554 7.101,5.004 1.672,1.464 2.789,2.507 3.332,3.152 -1.914,-0.598 -5.043,-1.336 -9.406,-2.223 -4.367,-0.879 -8.813,-1.312 -13.324,-1.312 -5.301,0 -9.711,0.765 -13.207,2.297 l -0.821,0.332 c 2.848,1.39 5.723,2.367 8.641,2.914 2.922,0.574 5.066,0.89 6.437,0.965 -1.285,0.257 -3.406,0.593 -6.347,1.011 -2.934,0.407 -6.418,0.61 -10.422,0.61 -3.281,0 -6.07,-0.184 -8.371,-0.551 -4.731,2.656 -7.168,4.105 -7.324,4.336 l -5.114,-9.164 z m 21.914,-22.336 c 4.758,-1.113 8.407,-2.414 10.989,-3.871 -4.524,1.051 -8.188,2.336 -10.989,3.871"
             style="fill:#ffcf26;fill-opacity:1;fill-rule:nonzero;stroke:none"
             id="path134"
             inkscape:connector-curvature="0" /><g
             id="g136"
             style="fill:#ffcf26;fill-opacity:1"><g
               id="g138"
               clip-path="url(#clipPath140)"
               style="fill:#ffcf26;fill-opacity:1"><path
                 d="m 790.906,305.898 67.2813,0 0,69.1875 -67.2813,0 0,-69.1875 z"
                 style="fill:#ffcf26;fill-opacity:1;fill-rule:nonzero;stroke:none"
                 id="path144"
                 inkscape:connector-curvature="0" /></g></g><path
             d="m 873.988,369.105 c -2.746,-2.667 -5.687,-6.644 -8.851,-11.894 -3.157,-5.254 -5.36,-11.375 -6.602,-18.371 -0.594,-2.914 -0.879,-6.281 -0.879,-10.098 0,-4.715 0.301,-9.183 0.907,-13.387 0.605,-4.203 1.093,-7.25 1.492,-9.113 l 16.418,5.836 c -1.485,-1.609 -2.758,-2.961 -3.86,-4.043 -1.086,-1.09 -1.843,-1.832 -2.281,-2.246 0.988,0.27 2.633,0.824 4.949,1.684 2.305,0.859 5.477,2.281 9.485,4.261 4.023,1.989 8.226,4.594 12.664,7.825 4.429,3.238 8.406,6.914 11.945,11.027 2.73,3.144 5.164,7.394 7.309,12.769 2.136,5.368 3.773,10.137 4.902,14.301 1.129,4.176 1.891,7.211 2.281,9.125 l -26.117,4.371 c 0,-4.261 -0.211,-10.117 -0.648,-17.562 -0.422,-7.434 -1.282,-12.848 -2.567,-16.211 -1.137,-2.805 -2.773,-5.813 -4.91,-9.031 -2.148,-3.219 -4.535,-6.383 -7.199,-9.485 -4.125,6.992 -6.571,12.621 -7.301,16.883 -0.301,1.828 -0.453,4.063 -0.453,6.688 0,6.019 0.668,12.113 2.004,18.316 1.344,6.184 2.461,10.758 3.363,13.711 -1.289,-0.895 -3.293,-2.68 -6.051,-5.356"
             style="fill:#ffcf26;fill-opacity:1;fill-rule:nonzero;stroke:none"
             id="path146"
             inkscape:connector-curvature="0" /><g
             id="g148"
             style="fill:#ffcf26;fill-opacity:1"><g
               id="g150"
               clip-path="url(#clipPath152)"
               style="fill:#ffcf26;fill-opacity:1"><path
                 d="m 857.656,305.789 66.2109,0 0,68.6719 -66.2109,0 0,-68.6719 z"
                 style="fill:#ffcf26;fill-opacity:1;fill-rule:nonzero;stroke:none"
                 id="path156"
                 inkscape:connector-curvature="0" /></g></g><path
             style="fill:#cb2128;fill-opacity:1;fill-rule:evenodd;stroke:none;stroke-width:8px;stroke-linecap:butt;stroke-linejoin:miter;stroke-opacity:1"
             d="m 533.06122,730.2038 64.2654,-241.53852 c 0,0 0.31048,-3.72553 -3.10461,-4.34645 -3.41507,-0.62096 -4.96738,6.20922 -4.96738,6.20922 l -61.7817,236.8816 c 0,0 -1.24184,5.89876 1.5523,6.83013 2.79415,0.93139 4.03599,-4.03598 4.03599,-4.03598 z"
             id="path4371"
             inkscape:connector-curvature="0" /><path
             inkscape:connector-curvature="0"
             id="path4373"
             d="M 496.4832,710.50408 613.82418,489.81881 c 0,0 1.14684,-3.5582 -2.03862,-4.93703 -3.18544,-1.37887 -6.24551,4.92168 -6.24551,4.92168 L 491.67368,706.51598 c 0,0 -2.54655,5.46376 -0.0362,7.00422 2.51032,1.54048 4.84577,-3.01612 4.84577,-3.01612 z"
             style="fill:#cb2128;fill-opacity:1;fill-rule:evenodd;stroke:#333333;stroke-width:0;stroke-linecap:butt;stroke-linejoin:miter;stroke-miterlimit:4;stroke-dasharray:none;stroke-opacity:1" /></g></g></g></g></svg>