<?xml version="1.0" encoding="UTF-8" standalone="no"?>
<!-- Creator: CorelDRAW X7 -->

<svg
   xmlns:dc="http://purl.org/dc/elements/1.1/"
   xmlns:cc="http://creativecommons.org/ns#"
   xmlns:rdf="http://www.w3.org/1999/02/22-rdf-syntax-ns#"
   xmlns:svg="http://www.w3.org/2000/svg"
   xmlns="http://www.w3.org/2000/svg"
   xmlns:sodipodi="http://sodipodi.sourceforge.net/DTD/sodipodi-0.dtd"
   xmlns:inkscape="http://www.inkscape.org/namespaces/inkscape"
   xml:space="preserve"
   width="210mm"
   height="297mm"
   version="1.1"
   style="shape-rendering:geometricPrecision; text-rendering:geometricPrecision; image-rendering:optimizeQuality; fill-rule:evenodd; clip-rule:evenodd"
   viewBox="0 0 21000 29700"
   id="svg2"
   inkscape:version="0.48.4 r9939"
   sodipodi:docname="GRIFFO.svg"><metadata
     id="metadata18"><rdf:RDF><cc:Work
         rdf:about=""><dc:format>image/svg+xml</dc:format><dc:type
           rdf:resource="http://purl.org/dc/dcmitype/StillImage" /><dc:title></dc:title></cc:Work></rdf:RDF></metadata><sodipodi:namedview
     pagecolor="#ffffff"
     bordercolor="#666666"
     borderopacity="1"
     objecttolerance="10"
     gridtolerance="10"
     guidetolerance="10"
     inkscape:pageopacity="0"
     inkscape:pageshadow="2"
     inkscape:window-width="1364"
     inkscape:window-height="693"
     id="namedview16"
     showgrid="false"
     showguides="true"
     inkscape:guide-bbox="true"
     inkscape:zoom="5.0743655"
     inkscape:cx="139.97429"
     inkscape:cy="524.32518"
     inkscape:window-x="0"
     inkscape:window-y="30"
     inkscape:window-maximized="1"
     inkscape:current-layer="svg2"><sodipodi:guide
       orientation="0,1"
       position="142.08673,502.92002"
       id="guide2998" /><sodipodi:guide
       orientation="0,1"
       position="137.94828,538.98364"
       id="guide3000" /></sodipodi:namedview><defs
     id="defs4"><style
       type="text/css"
       id="style6">
    .fil0 {fill:#4B4B4D}
    .fil1 {fill:#4B4B4D;fill-rule:nonzero}
   </style></defs><path
     style="fill:#000000;fill-opacity:1"
     inkscape:connector-curvature="0"
     id="path10"
     d="m 2802.3625,15075.108 c 0,0 -33.5077,-29.663 0.6796,-43.983 58.0436,-5.896 65.6559,-37.845 118.8738,-37.003 53.2179,0.843 78.2297,2.286 86.7255,-1.925 8.5638,-4.212 19.9822,-10.109 27.3906,-19.976 0,0 0,31.167 -19.9822,33.633 -19.9822,2.528 0,16.848 0,16.848 0,0 31.3327,16.847 37.0419,23.585 -5.6413,-1.323 -8.4959,-1.443 -13.7293,0.302 14.341,19.374 22.3611,28.94 40.3722,45.787 -4.01,0.121 -8.088,0.301 -12.098,0.421 4.6217,5.896 9.1755,11.793 13.7972,17.689 -4.7577,-0.18 -9.5153,-0.3 -14.273,-0.421 0,0 3.6022,12.455 8.8356,22.624 l 0,0 c 9.6513,23.285 27.4586,39.409 44.994,55.775 -2.2429,-11.191 -15.5644,-27.978 -27.2546,-40.252 11.6902,2.707 28.2061,0 38.0613,-14.2 13.7973,-19.735 24.2641,-164.98 -9.9231,-223.884 -10.3989,-21.901 12.3699,-43.802 12.3699,-43.802 0,0 125.6705,-151.082 142.7301,-291.694 34.867,53.429 9.9911,110.107 -6.7286,151.563 0,0 56.0725,-69.013 63.6847,-129.602 19.9823,37.845 11.4184,111.07 -37.1098,166.665 43.0229,-20.096 88.5606,-96.389 88.5606,-96.389 -3.0585,90.974 -39.0128,115.281 -67.2191,143.741 28.2063,2.768 56.5484,-21.119 88.6287,-73.405 -1.5633,81.949 -38.3333,100.902 -75.579,122.683 44.9939,-2.347 47.4408,-9.146 101.0664,-56.077 -10.3308,67.328 -66.8112,96.75 -67.1511,100.962 33.5076,2.587 48.2565,-13.237 72.9283,-37.966 -5.7772,45.306 -41.0519,62.093 -78.5695,81.347 43.9065,16.125 72.3167,-8.785 81.0843,-19.916 -5.9811,25.873 -44.0424,51.685 -80.4046,68.412 34.1193,-1.445 46.1494,0.842 85.5701,-16.486 -23.7883,45.126 -118.3981,56.136 -110.7858,62.935 0,0 50.9071,6.077 81.2883,-5.656 -9.2435,14.681 -38.4692,32.611 -89.8521,33.453 19.7783,19.134 77.9578,10.95 77.9578,10.95 -22.3611,21.24 -51.9266,25.873 -93.3862,24.369 6.8646,8.664 25.6913,16.305 39.0129,14.2 -12.8457,5.174 -28.8179,8.002 -40.916,12.334 -27.7984,8.002 -33.3037,23.646 -39.4887,40.132 8.9037,-9.989 29.9054,-22.864 40.916,-28.219 9.9232,1.745 23.7204,2.888 38.7411,0.301 29.4975,-5.054 77.9578,-11.793 120.7768,2.527 42.7511,14.32 97.9401,40.373 140.6911,80.806 42.819,40.372 91.2794,91.755 118.8739,105.173 27.5264,13.477 38.673,16.245 61.3059,-3.369 19.9822,-17.269 14.2729,-51.084 14.2729,-51.084 0,0 9.5155,-33.032 47.9846,-35.559 -10.4669,15.945 -19.6423,50 -19.6423,50 -35.5467,19.675 -30.1093,59.386 -74.4916,59.806 -67.355,-2.466 -185.889,-172.38 -275.2651,-179.239 -43.7028,-3.369 -14.6809,25.21 -14.6809,25.21 0,0 60.8302,48.856 89.3762,87.544 28.478,38.749 121.6604,77.437 121.6604,77.437 0,0 17.1276,1.684 23.7884,29.481 6.6607,27.738 39.9644,68.592 39.9644,68.592 -5.7092,-3.189 -7.6803,-4.091 -16.1761,-5.896 4.282,5.715 11.6903,20.276 15.9722,26.052 0,0 2.107,1.684 -8.3598,8.844 -10.467,7.161 -14.2731,23.165 -14.2731,23.165 -24.6039,-0.12 -49.1399,-0.3 -73.6759,-0.421 0,0 -14.273,-16.005 -26.9149,-10.529 3.8062,-10.71 19.3026,-21.841 46.8292,-14.32 23.3804,8.303 28.8858,-28.279 10.9426,-46.69 -23.7205,-24.428 -4.7577,-23.586 -64.6364,-52.587 -20.4579,-20.758 -11.4184,-22.744 -44.722,-37.485 -83.1913,-26.052 -63.6849,-111.491 -86.5216,-117.808 -6.1172,44.403 10.3989,102.105 72.2485,128.338 0,0 30.4491,10.108 28.546,26.955 -1.903,16.787 4.7578,49.639 28.9539,65.222 -10.0591,-1.865 -14.1371,-3.189 -18.6229,-6.739 2.7186,4.753 8.224,15.884 10.9426,20.638 1.6312,5.054 -1.1555,8.123 -11.1465,14.019 -9.9911,5.896 -26.7789,31.407 -26.7789,31.407 -24.4001,-0.3 -48.8001,-0.541 -73.2001,-0.842 0,0 -15.0207,-14.199 -23.7884,-10.108 3.3304,-10.289 22.8368,-22.744 41.8675,-13.478 29.4296,14.38 43.3628,-54.632 21.8173,-74.909 -49.2759,-72.863 -138.5162,-46.75 -173.0433,-119.493 0,0 -9.5153,-16.005 -37.9934,-24.428 1.0875,14.561 11.3505,25.271 20.39,29.482 -29.4295,-5.114 -40.3722,-0.842 -72.7244,19.314 -32.2841,20.217 -102.6977,29.483 -102.6977,29.483 0,0 -2.8546,43.801 12.37,65.221 -26.3031,-16.546 -19.1666,29.904 -14.273,39.591 -7.0686,-0.542 -9.9232,-5.897 -9.9232,-5.897 0,0 -8.088,16.005 3.2624,26.113 -12.5738,-0.542 -16.5838,-8.002 -16.5838,-8.002 0,0 -19.9143,34.476 31.8084,34.476 -12.6418,12.455 -42.7511,6.317 -42.7511,6.317 0,0 -11.1465,-9.266 -27.7984,-4.212 -12.3699,6.318 -22.8368,9.688 -33.7794,8.003 -7.6123,-3.249 -12.234,5.295 -12.234,5.295 -3.6023,-2.226 -3.2624,-7.16 -0.136,-10.77 0,0 -14.9526,-4.693 -24.7399,8.243 -2.7186,-7.401 3.3304,-13.719 3.3304,-13.719 -3.6702,-0.421 -8.6997,-0.3 -15.6323,9.507 -1.0875,-9.988 -2.3789,-29.662 30.1772,-15.403 105.6882,13.117 48.7321,-88.386 12.0981,-141.816 -4.3499,-8.784 -1.9031,-12.334 -9.4474,-20.035 -3.0585,-3.129 -22.8368,-18.953 -29.2257,-23.586 -5.0975,10.95 9.5153,16.606 19.7783,28.399 7.4764,8.664 11.2145,25.33 10.6028,26.173 -21.0696,31.107 -8.8356,43.682 -7.8161,44.163 -23.9923,-12.094 -33.3717,16.426 -24.7399,32.972 -6.3209,-1.383 -6.7287,-3.008 -10.0591,-6.197 -3.6702,-3.61 -18.9627,11.011 -8.4279,22.443 -8.7677,-2.287 -10.9426,-2.287 -14.273,-5.837 -2.9905,0.542 -71.7728,50.722 -3.1264,45.488 -12.7778,10.95 -36.6341,13.958 -47.8486,10.348 -1.1555,-0.07 -23.3126,-7.1 -32.4881,-3.068 -13.3895,5.956 -23.0407,-0.482 -23.3126,-0.422 -5.5733,1.143 -9.7872,4.693 -10.8747,8.664 -4.01,-4.452 0.4078,-10.408 0.4078,-10.408 0,0 -16.1081,-8.424 -20.5939,7.34 -3.4663,-6.679 -5.981,-13.899 0.9515,-15.764 -6.9325,0.843 -11.2145,-2.106 -19.5064,8.424 -2.107,-7.16 5.0295,-31.83 43.0229,-11.372 77.0743,15.282 96.3089,-134.656 98.2799,-165.1 -48.0525,-25.813 -60.1506,-52.166 -61.7817,-89.711 -1.9711,1.263 -5.8452,9.146 -4.8257,14.2 -5.2334,-6.379 -1.0875,-35.92 -0.8836,-53.068 -3.3983,1.443 -6.049,4.874 -6.3209,12.695 -5.3014,-8.725 2.5828,-29.783 7.7483,-39.41 29.0217,-55.114 0.4757,-85.017 0.4757,-85.017 -19.3705,-28.098 -109.0866,-42.057 -105.6202,-9.627 z m 114.5239,-66.064 c -11.7583,2.346 -16.6519,2.768 -27.1188,6.799 25.8954,18.651 57.4999,-13.478 27.1188,-6.799 z"
     class="fil0"
     inkscape:export-filename="/home/tiago/griffo-footer/griffo-footer-grey.png"
     inkscape:export-xdpi="90"
     inkscape:export-ydpi="90" /><path
     style="fill:#000000;fill-rule:nonzero;fill-opacity:1"
     inkscape:connector-curvature="0"
     id="path12"
     d="m 4232.0898,14932.96 0,-52.439 0,-24.685 0.4003,-134.04 c 0,-15.348 2.669,-27.755 7.8734,-36.964 5.2044,-9.337 12.5439,-13.941 22.2855,-13.941 l 55.5135,0 c 15.4799,0 25.4883,4.349 29.7586,13.174 4.2701,8.697 6.4054,21.615 6.4054,38.498 l 0,108.716 28.157,0 0,-129.436 c 0.5338,-14.453 -2.8024,-27.499 -9.608,-39.394 -6.9392,-11.766 -18.0154,-18.289 -33.0946,-19.313 l -85.1387,0 c -18.9494,1.024 -32.6943,7.802 -40.8345,20.081 -8.2737,12.278 -12.2771,26.731 -12.2771,43.231 l 0,24.557 0,417.725 0,24.684 c 0,15.476 3.7365,29.545 11.4764,42.463 7.7399,12.663 20.9511,19.697 39.9004,20.721 l 85.4056,0 c 11.7432,-1.024 21.885,-7.419 30.4256,-19.186 8.6741,-11.895 12.6774,-24.94 12.1437,-39.393 l 0,-129.436 -0.9341,-110.89 -27.2231,0 -51.5102,0 0,29.161 51.5102,0 0,190.317 c 0,17.011 -2.2687,29.801 -6.4054,38.498 -4.2703,8.825 -14.1453,13.174 -29.892,13.174 l -39.3665,0 c -19.2163,0 -31.4933,-4.604 -36.8312,-13.813 -5.4713,-9.337 -8.1402,-22.127 -8.1402,-38.499 l 0,-172.666 0,-50.905 z m 343.7572,303.638 0,-593.078 99.1505,0 c 20.2839,0 35.4967,5.372 45.772,16.116 10.2754,10.615 18.6824,29.417 24.821,56.404 6.2719,26.987 9.4747,56.788 9.4747,89.403 0,42.079 -5.071,77.508 -15.3463,106.286 -10.4088,28.777 -26.2889,47.067 -47.7737,54.741 7.8733,9.977 13.7448,19.953 17.7483,29.673 8.5405,21.104 16.6808,47.196 24.554,78.66 l 39.3667,161.795 -37.3649,0 -29.7586,-123.681 c -8.9408,-35.684 -16.0135,-62.927 -21.7516,-81.857 -5.6049,-18.929 -10.6757,-32.103 -15.0794,-39.521 -4.4037,-7.418 -8.8075,-12.662 -13.3446,-15.732 -3.3362,-1.918 -8.8075,-2.814 -16.5474,-2.814 l -34.5626,0 0,263.605 -29.3581,0 z m 29.7586,-286.755 55.1132,0 c 18.1486,-2.941 30.6925,-10.488 37.6318,-22.382 7.0726,-11.64 12.9443,-28.011 17.7483,-48.475 4.804,-20.464 8.1402,-45.789 9.7416,-75.845 0,-41.312 -4.0035,-74.439 -11.6098,-99.507 -7.8734,-24.813 -26.8227,-38.882 -56.8481,-41.952 l -51.777,0 0,288.161 z m 346.5596,286.755 -0.8007,-593.462 32.027,0 0,593.462 -31.2263,0 z m 227.5256,0 0,-591.032 176.4156,0 -0.4002,26.86 -144.7891,0 0,244.675 133.5795,0 0,30.568 -133.5795,0 0,256.57 0,32.359 -31.2263,0 z m 362.3061,0 0,-591.032 176.4158,0 -0.4004,26.86 -144.7891,0 0,244.675 133.5797,0 0,30.568 -133.5797,0 0,256.57 0,32.359 -31.2263,0 z m 408.3452,-303.638 0,-52.439 0,-24.685 0.4002,-134.04 c 0,-15.348 2.6689,-27.755 7.8734,-36.964 5.2044,-9.337 12.5439,-13.941 22.2855,-13.941 l 55.5137,0 c 15.4796,0 25.488,4.349 29.7583,13.174 4.2704,8.697 6.4054,21.615 6.4054,38.498 l 0,108.716 0,98.612 0,118.692 0,109.355 c -1.0675,16.5 -3.7364,29.034 -8.0068,37.731 -4.2703,8.825 -14.1453,13.174 -29.7583,13.174 l -39.5002,0 c -19.2161,0 -31.4932,-4.604 -36.831,-13.813 -5.3379,-9.337 -8.1402,-22.127 -8.1402,-38.499 l 0,-172.666 0,-50.905 z m 150.3937,-101.681 0,-129.436 c 0.5339,-14.453 -2.6689,-27.499 -9.6082,-39.394 -6.9392,-11.766 -20.1504,-18.289 -39.4999,-19.313 l -78.7333,0 c -18.9493,1.024 -32.6943,7.802 -40.8345,20.081 -8.1402,12.278 -12.2771,26.731 -12.2771,43.231 l 0,24.557 0,417.725 0,24.684 c 0,15.476 3.8701,29.545 11.4764,42.463 7.7399,12.663 20.9511,19.697 39.9004,20.721 l 69.2585,0 c 17.0811,-1.024 31.3598,-7.419 42.7028,-19.186 11.2095,-11.895 16.8142,-26.603 16.8142,-43.998 l 0.8007,-342.135 z"
     class="fil1"
     inkscape:export-filename="/home/tiago/griffo-footer/griffo-footer-grey.png"
     inkscape:export-xdpi="90"
     inkscape:export-ydpi="90" /><path
     style="fill:#000000;fill-rule:nonzero;fill-opacity:1"
     inkscape:connector-curvature="0"
     id="path14"
     d="m 4217.1438,15507.62 0,-196.712 92.8785,0 -0.1334,8.953 -76.1977,0 0,81.473 70.1926,0 0,10.104 -70.1926,0 0,85.31 0,10.872 -16.5474,0 z m 198.3011,0 0,-197.351 52.1772,0 c 10.6757,0 18.6825,1.79 24.154,5.371 5.3378,3.582 9.7415,9.849 13.0775,18.802 3.3362,8.953 4.9376,18.801 4.9376,29.673 0,14.069 -2.6689,25.836 -8.1402,35.429 -5.4712,9.592 -13.745,15.603 -25.0878,18.161 4.1367,3.326 7.2061,6.651 9.3411,9.849 4.5372,7.034 8.8075,15.732 12.9444,26.22 l 20.6841,53.846 -19.6166,0 -15.6132,-41.184 c -4.804,-11.895 -8.5405,-20.976 -11.4764,-27.243 -2.9358,-6.267 -5.6047,-10.744 -8.0068,-13.174 -2.2685,-2.43 -4.6706,-4.221 -7.0726,-5.244 -1.7349,-0.639 -4.5372,-0.895 -8.6739,-0.895 l -18.1488,0 0,87.74 -15.4796,0 z m 15.613,-95.414 29.0913,0 c 9.6082,-1.023 16.147,-3.581 19.75,-7.419 3.7365,-3.964 6.8058,-9.336 9.3414,-16.243 2.5355,-6.779 4.2703,-15.22 5.2044,-25.196 0,-13.686 -2.1353,-24.813 -6.1386,-33.127 -4.1369,-8.186 -14.1453,-12.918 -29.892,-13.941 l -27.3565,0 0,95.926 z m 234.4649,-62.032 -35.0962,157.446 -18.0154,0 49.3751,-197.224 18.2821,0 53.245,197.224 -19.75,0 -43.5035,-177.655 -4.5371,20.209 z m 245.0071,156.806 -7.7399,0 -9.7416,0.384 -83.8041,-178.806 0,178.422 -15.2128,0.384 0.5337,-197.223 25.4882,0 82.0693,176.887 78.066,-176.887 30.2923,0 0,197.479 -17.2145,0 0,-178.422 -82.7366,177.782 z m 204.9731,0.64 0,-196.712 92.8786,0 -0.2668,8.953 -76.1978,0 0,81.473 70.3261,0 0,10.104 -70.3261,0 0,86.334 78.7331,0 0.6673,9.848 -95.8144,0 z m 293.5816,-137.75 -12.4105,-59.729 -19.3497,0.255 -14.5455,59.73 -26.4224,117.797 -26.6893,-117.541 -14.0118,-59.986 -17.4816,0 48.4411,197.224 18.0152,0 42.0356,-177.015 38.6993,177.015 18.6824,0 51.2434,-197.479 -18.6824,0 -14.4124,59.474 -26.4221,117.797 -26.6893,-117.542 z m 208.7098,36.708 0,-17.394 0,-8.314 0.1334,-44.51 c 0,-5.116 1.3344,-9.336 4.1367,-12.278 2.8025,-3.198 6.6724,-4.732 11.7434,-4.732 l 29.2245,0 c 8.1404,0 13.4783,1.534 15.6133,4.348 2.2687,2.942 3.4696,7.291 3.4696,12.918 l 0,36.068 0,32.871 0,39.393 0,36.452 c -0.6672,5.5 -2.0016,9.721 -4.2703,12.535 -2.2684,2.941 -7.4729,4.348 -15.7467,4.348 l -20.6841,0 c -10.1418,0 -16.5472,-1.535 -19.4831,-4.604 -2.8023,-3.07 -4.1367,-7.291 -4.1367,-12.79 l 0,-57.428 0,-16.883 z m 79.1335,-33.894 0,-42.974 c 0.2669,-4.861 -1.4679,-9.209 -5.071,-13.174 -3.7364,-3.837 -10.6757,-6.012 -20.8177,-6.395 l -41.5016,0 c -9.875,0.383 -17.0811,2.558 -21.4848,6.651 -4.2703,4.092 -6.4056,8.953 -6.4056,14.452 l 0,8.186 0,138.901 0,8.185 c 0,5.116 2.0019,9.849 6.0052,14.069 4.1369,4.349 11.0761,6.651 21.0845,7.035 l 36.4308,0 c 8.9409,-0.384 16.5472,-2.558 22.4189,-6.395 5.8717,-3.965 8.9409,-8.953 8.9409,-14.709 l 0.4004,-113.832 z m 101.6859,134.936 0,-197.351 52.3109,0 c 10.5423,0 18.6824,1.79 24.0203,5.371 5.4712,3.582 9.875,9.849 13.0778,18.802 3.336,8.953 4.9374,18.801 4.9374,29.673 0,14.069 -2.669,25.836 -8.0068,35.429 -5.4713,9.592 -13.8783,15.603 -25.2212,18.161 4.1367,3.326 7.206,6.651 9.3411,9.849 4.5371,7.034 8.8074,15.732 12.9443,26.22 l 20.6841,53.846 -19.6165,0 -15.6133,-41.184 c -4.6706,-11.895 -8.5404,-20.976 -11.4762,-27.243 -2.936,-6.267 -5.6049,-10.744 -7.8733,-13.174 -2.4021,-2.43 -4.8042,-4.221 -7.0727,-5.244 -1.7348,-0.639 -4.6706,-0.895 -8.674,-0.895 l -18.2822,0 0,87.74 -15.4797,0 z m 15.7467,-95.414 28.9577,0 c 9.6081,-1.023 16.1469,-3.581 19.8836,-7.419 3.603,-3.964 6.8056,-9.336 9.3411,-16.243 2.5355,-6.779 4.2703,-15.22 5.071,-25.196 0,-13.686 -2.1352,-24.813 -6.1385,-33.127 -4.1369,-8.186 -14.0119,-12.918 -29.892,-13.941 l -27.2229,0 0,95.926 z m 179.8853,95.414 0,-196.968 15.3462,0 -0.5336,101.554 61.7854,-101.554 18.9495,0 -49.7754,79.427 52.1773,117.541 -18.9493,0 -43.9037,-101.553 -20.2838,30.184 0.5336,71.369 -15.3462,0 z"
     class="fil1"
     inkscape:export-filename="/home/tiago/griffo-footer/griffo-footer-grey.png"
     inkscape:export-xdpi="90"
     inkscape:export-ydpi="90" /></svg>